<svg  viewBox="0 0 307 302" fill="none" xmlns="http://www.w3.org/2000/svg">
<g clip-path="url(#clip0_20_965)">
<path d="M17.7214 295.576C16.841 294.822 14.8801 292.434 16.3874 289.652C16.941 288.631 18.1216 288.124 19.1887 287.65C20.2865 287.281 21.3212 286.746 22.2568 286.063C23.9242 284.642 24.3844 282.294 25.4849 280.399C26.7588 278.231 29.1266 276.603 31.6277 276.717C34.489 276.85 36.8768 279.191 37.964 281.86C39.0511 284.528 39.0845 287.49 39.1045 290.372C39.1045 291.967 39.0511 293.761 37.8772 294.835C36.8034 295.829 35.2094 295.843 33.7154 295.796L18.1016 295.342" fill="#F5F5F5"/>
<path d="M47.6684 252.521H6.49628L13.913 296.75C14.0659 297.673 14.4781 298.534 15.1016 299.232C15.7252 299.93 16.5343 300.437 17.4346 300.692H17.5747C17.7014 300.726 17.8148 300.766 17.9415 300.792C18.219 300.844 18.4998 300.875 18.7819 300.886V300.926H18.982H37.3303C37.6706 300.923 38.0099 300.89 38.3441 300.826C39.415 300.659 40.4018 300.147 41.1535 299.366C41.9052 298.585 42.3803 297.58 42.506 296.503L46.1143 266.063L46.2744 264.849L47.6417 252.721L47.6684 252.521ZM39.8982 280.739H35.6763L36.1098 267.897H41.0053L39.8982 280.739ZM41.4055 267.904H45.4474L43.9467 280.739H40.3117L41.4055 267.904ZM29.3334 294.969L29.0799 283.821H35.1627L34.7758 294.962L29.3334 294.969ZM22.7704 283.815H28.6797L28.9398 294.962H23.6241L22.7704 283.815ZM23.2306 294.962H18.255C17.7881 291.953 17.1745 288.037 16.5075 283.815H22.3502L23.2306 294.962ZM22.5169 280.739L21.5231 267.904H28.3062L28.5997 280.739H22.5169ZM29.0065 280.739L28.7131 267.904H35.6896L35.2627 280.739H29.0065ZM28.6397 264.822L28.3663 252.934H36.1898L35.7963 264.822H28.6397ZM28.2329 264.822H21.283L20.3559 252.934H27.9594L28.2329 264.822ZM20.8962 264.822H13.5595C13.2994 263.181 13.0526 261.627 12.8258 260.232C12.0588 255.422 11.772 253.615 11.6119 252.934H19.9491L20.8962 264.822ZM21.1363 267.904L22.1034 280.739H16.0273C15.8205 279.438 15.6138 278.117 15.407 276.803C14.9335 273.775 14.4532 270.739 14.0064 267.904H21.1363ZM15.6138 280.739H11.6119L9.45763 267.904H13.5662C14.2198 271.867 14.9134 276.276 15.6138 280.739ZM16.094 283.821C16.7009 287.677 17.3012 291.486 17.8415 294.969H14.0264L12.1589 283.821H16.094ZM35.2027 294.969L35.5695 283.821H39.6381L38.6843 294.969H35.2027ZM36.2032 264.822L36.5967 252.934H42.2726L41.2588 264.822H36.2032ZM11.1851 252.927C11.3452 253.788 12.0988 258.464 13.106 264.815H8.97074L6.96983 252.927H11.1851ZM42.2793 294.955H39.0978L40.0449 283.808H43.5865L42.2793 294.955ZM45.8142 264.809H41.6723L42.6861 252.921H47.2082L45.8142 264.809Z" fill="#E0E0E0"/>
<path d="M297.969 64.2292H242.477V113.889H297.969V64.2292Z" fill="#FAFAFA"/>
<path d="M297.969 113.889C297.969 113.889 297.969 113.569 297.969 112.962C297.969 112.354 297.969 111.467 297.969 110.293C297.969 107.958 297.969 104.549 297.969 100.213C297.969 91.5407 297.929 79.1391 297.903 64.1892L298.029 64.316H242.537L242.684 64.1692C242.684 82.2345 242.684 99.2324 242.684 113.829L242.557 113.695L282.689 113.762L294.027 113.795H297.022H297.796H297.049H294.081H282.789L242.571 113.862H242.437V113.735C242.437 99.139 242.437 82.1411 242.437 64.0758V63.9291H242.591H298.083H298.209V64.0558C298.209 79.0124 298.156 91.4073 298.143 100.133C298.143 104.456 298.143 107.858 298.109 110.18C298.109 111.334 298.109 112.181 298.109 112.848C298.109 113.515 297.969 113.889 297.969 113.889Z" fill="#E0E0E0"/>
<path d="M263.754 73.0552C263.754 73.1352 260.832 73.2019 257.231 73.2019C253.629 73.2019 250.708 73.1352 250.708 73.0552C250.708 72.9751 253.629 72.9017 257.231 72.9017C260.832 72.9017 263.754 72.9684 263.754 73.0552Z" fill="#E0E0E0"/>
<path d="M287.264 76.7776C287.264 76.8643 279.261 76.9311 269.343 76.9311C259.425 76.9311 251.421 76.8643 251.421 76.7776C251.421 76.6909 259.425 76.6309 269.343 76.6309C279.261 76.6309 287.264 76.6976 287.264 76.7776Z" fill="#E0E0E0"/>
<path d="M253.142 83.0951H250.801V85.4366H253.142V83.0951Z" fill="#E0E0E0"/>
<path d="M258.898 83.0951H256.557V85.4366H258.898V83.0951Z" fill="#E0E0E0"/>
<path d="M264.761 82.9884H262.42V85.33H264.761V82.9884Z" fill="#E0E0E0"/>
<path d="M270.41 83.0951H268.069V85.4366H270.41V83.0951Z" fill="#E0E0E0"/>
<path d="M276.166 83.0951H273.825V85.4366H276.166V83.0951Z" fill="#E0E0E0"/>
<path d="M281.915 83.0951H279.574V85.4366H281.915V83.0951Z" fill="#E0E0E0"/>
<path d="M287.671 83.0951H285.33V85.4366H287.671V83.0951Z" fill="#EBEBEB"/>
<path d="M253.142 88.0651H250.801V90.4066H253.142V88.0651Z" fill="#EBEBEB"/>
<path d="M258.898 88.0651H256.557V90.4066H258.898V88.0651Z" fill="#E0E0E0"/>
<path d="M264.654 88.0651H262.313V90.4066H264.654V88.0651Z" fill="#EBEBEB"/>
<path d="M270.41 88.0651H268.069V90.4066H270.41V88.0651Z" fill="#E0E0E0"/>
<path d="M276.166 88.0651H273.825V90.4066H276.166V88.0651Z" fill="#E0E0E0"/>
<path d="M282.022 87.9583H279.681V90.2998H282.022V87.9583Z" fill="#E0E0E0"/>
<path d="M287.671 88.0651H285.33V90.4066H287.671V88.0651Z" fill="#E0E0E0"/>
<path d="M253.142 93.0416H250.801V95.3832H253.142V93.0416Z" fill="#E0E0E0"/>
<path d="M259.005 92.9349H256.664V95.2765H259.005V92.9349Z" fill="#E0E0E0"/>
<path d="M264.654 93.0416H262.313V95.3832H264.654V93.0416Z" fill="#E0E0E0"/>
<path d="M270.41 93.0416H268.069V95.3832H270.41V93.0416Z" fill="#EBEBEB"/>
<path d="M276.166 93.0416H273.825V95.3832H276.166V93.0416Z" fill="#E0E0E0"/>
<path d="M281.915 93.0416H279.574V95.3832H281.915V93.0416Z" fill="#E0E0E0"/>
<path d="M287.671 93.0416H285.33V95.3832H287.671V93.0416Z" fill="#E0E0E0"/>
<path d="M253.142 98.0116H250.801V100.353H253.142V98.0116Z" fill="#E0E0E0"/>
<path d="M258.898 98.0116H256.557V100.353H258.898V98.0116Z" fill="#E0E0E0"/>
<path d="M264.654 98.0116H262.313V100.353H264.654V98.0116Z" fill="#E0E0E0"/>
<path d="M270.517 97.9049H268.176V100.246H270.517V97.9049Z" fill="#E0E0E0"/>
<path d="M276.166 98.0116H273.825V100.353H276.166V98.0116Z" fill="#E0E0E0"/>
<path d="M281.915 98.0116H279.574V100.353H281.915V98.0116Z" fill="#EBEBEB"/>
<path d="M287.671 98.0116H285.33V100.353H287.671V98.0116Z" fill="#E0E0E0"/>
<path d="M253.142 102.982H250.801V105.323H253.142V102.982Z" fill="#E0E0E0"/>
<path d="M258.898 102.982H256.557V105.323H258.898V102.982Z" fill="#EBEBEB"/>
<path d="M264.654 102.982H262.313V105.323H264.654V102.982Z" fill="#E0E0E0"/>
<path d="M270.41 102.982H268.069V105.323H270.41V102.982Z" fill="#E0E0E0"/>
<path d="M276.166 102.982H273.825V105.323H276.166V102.982Z" fill="#E0E0E0"/>
<path d="M282.022 102.875H279.681V105.216H282.022V102.875Z" fill="#E0E0E0"/>
<path d="M287.671 102.982H285.33V105.323H287.671V102.982Z" fill="#E0E0E0"/>
<path d="M287.268 32.1012C289.04 21.0718 281.538 10.6938 270.511 8.92126C259.483 7.14872 249.108 14.6529 247.335 25.6822C245.563 36.7116 253.066 47.0896 264.093 48.8622C275.12 50.6347 285.496 43.1306 287.268 32.1012Z" fill="#E0E0E0"/>
<path d="M267.515 46.9978C277.623 46.9978 285.817 38.8022 285.817 28.6924C285.817 18.5826 277.623 10.387 267.515 10.387C257.408 10.387 249.214 18.5826 249.214 28.6924C249.214 38.8022 257.408 46.9978 267.515 46.9978Z" fill="white"/>
<path d="M249.027 27.5984C249.027 27.5984 249.027 27.6985 249.027 27.892C249.027 28.0854 249.027 28.3923 249.027 28.7726C249.027 28.966 249.027 29.1795 249.027 29.4397C249.027 29.6998 249.074 29.94 249.094 30.2202C249.114 30.5004 249.147 30.8006 249.18 31.1208C249.218 31.4641 249.276 31.8049 249.354 32.1414C249.666 33.8882 250.242 35.5775 251.061 37.1514C252.133 39.2442 253.598 41.1106 255.376 42.6484L256.13 43.3155C256.397 43.5156 256.677 43.7024 256.95 43.9026C257.224 44.1027 257.504 44.3095 257.811 44.4763C258.118 44.643 258.424 44.8165 258.731 44.9966L259.198 45.2568L259.692 45.4703L260.699 45.9172C261.039 46.0573 261.366 46.1507 261.759 46.2775C262.114 46.4083 262.477 46.5153 262.847 46.5977C263.6 46.7934 264.367 46.9339 265.141 47.018C265.534 47.058 265.928 47.1247 266.328 47.1447H267.542C267.749 47.1447 267.956 47.1447 268.156 47.1447L268.776 47.0913C269.183 47.0513 269.603 47.0313 270.016 46.9713C270.855 46.8416 271.684 46.6566 272.498 46.4176L273.118 46.2374L273.431 46.144L273.731 46.0173L274.952 45.5303C275.352 45.3435 275.739 45.1234 276.133 44.9232C276.334 44.8271 276.53 44.7202 276.72 44.603L277.286 44.2361C278.05 43.7346 278.779 43.1819 279.467 42.5817L280.468 41.621L280.715 41.3809L280.941 41.114L281.402 40.5804L281.855 40.0467L282.262 39.473L282.669 38.8926L282.889 38.579L283.062 38.2722C283.296 37.8519 283.536 37.4383 283.769 37.0247C284.003 36.6111 284.156 36.1441 284.356 35.6905C285.081 33.8658 285.531 31.9436 285.69 29.9867C285.795 28.0257 285.604 26.0601 285.123 24.1562C284.99 23.6892 284.857 23.2289 284.716 22.7686C284.576 22.3083 284.363 21.8813 284.183 21.4344L284.05 21.1008L283.883 20.7873L283.556 20.1602L283.229 19.5331L282.842 18.9394L282.462 18.3523L282.269 18.0655L282.055 17.792L281.195 16.7046C280.586 16.0279 279.931 15.3948 279.234 14.81L278.72 14.3697C278.554 14.2229 278.36 14.1095 278.18 13.9761C277.813 13.7226 277.46 13.4558 277.086 13.2223L275.946 12.5552L275.659 12.3951C275.564 12.3438 275.466 12.2993 275.366 12.2616L274.772 11.9948C273.995 11.6535 273.198 11.3616 272.384 11.1209C271.977 11.0075 271.57 10.9341 271.164 10.8407L270.563 10.7073C270.363 10.6672 270.157 10.6539 269.956 10.6272L268.723 10.5605C268.322 10.5272 267.922 10.5605 267.529 10.5272C266.751 10.5142 265.974 10.5521 265.201 10.6406C264.822 10.6767 264.445 10.7369 264.074 10.8207C263.707 10.8941 263.333 10.9474 262.98 11.0408L261.926 11.3477L261.406 11.5011L260.906 11.6946L259.925 12.0882C259.605 12.2149 259.312 12.3951 259.005 12.5485C258.698 12.7019 258.398 12.8554 258.111 13.0155L257.277 13.5558C255.315 14.8516 253.619 16.5115 252.282 18.4457C251.263 19.8984 250.471 21.4978 249.934 23.1889C249.814 23.5123 249.712 23.8419 249.627 24.1762C249.552 24.4875 249.485 24.781 249.427 25.0568C249.367 25.3303 249.3 25.5838 249.26 25.8173C249.22 26.0508 249.207 26.2642 249.18 26.4844C249.134 26.8646 249.094 27.1515 249.067 27.3516C249.04 27.5517 249.027 27.6518 249.027 27.6518C249.027 27.6518 249.027 27.5451 249.027 27.3516C249.027 27.1581 249.08 26.858 249.12 26.4777C249.12 26.2842 249.167 26.0708 249.194 25.8106C249.22 25.5504 249.294 25.3236 249.347 25.0434C249.4 24.7632 249.474 24.4697 249.54 24.1562C249.621 23.82 249.719 23.4883 249.834 23.1622C250.365 21.4584 251.152 19.8455 252.168 18.379C253.505 16.4244 255.205 14.746 257.177 13.4357L258.011 12.8887C258.304 12.7219 258.611 12.5752 258.911 12.4151C259.212 12.255 259.518 12.0748 259.845 11.9481L260.832 11.5478L261.332 11.3477L261.859 11.1943L262.92 10.8807C263.28 10.7873 263.654 10.734 264.027 10.6539C264.401 10.5701 264.78 10.51 265.161 10.4738C265.94 10.3797 266.724 10.3396 267.509 10.3537C267.909 10.3537 268.309 10.3537 268.716 10.3537L269.936 10.4938C270.136 10.4938 270.343 10.5338 270.55 10.5738L271.157 10.7073C271.564 10.8007 271.977 10.8807 272.384 10.9875C273.217 11.2363 274.032 11.5394 274.825 11.8947L275.419 12.1616L275.719 12.295L276.006 12.4551L277.166 13.1222C277.54 13.3624 277.9 13.6292 278.267 13.8827C278.454 14.0161 278.647 14.1362 278.82 14.283L279.334 14.7233C280.043 15.3182 280.712 15.96 281.335 16.6445L282.222 17.6986L282.442 17.9721L282.636 18.2656L283.022 18.8593L283.409 19.4597L283.743 20.0868L284.07 20.7539L284.236 21.0741L284.376 21.4077L284.917 22.7419C285.057 23.2089 285.19 23.6758 285.33 24.1428C285.814 26.0689 286.005 28.057 285.897 30.0401C285.748 32.0179 285.298 33.9615 284.563 35.8039C284.363 36.2508 284.17 36.6978 283.969 37.1381C283.769 37.5784 283.496 37.9853 283.256 38.3989C283.196 38.5057 283.142 38.6124 283.076 38.7125L282.869 39.006L282.462 39.593L282.049 40.1801L281.582 40.7205L281.122 41.2541L280.895 41.521L280.641 41.7678L279.634 42.7418C278.933 43.337 278.193 43.8853 277.42 44.3829L276.846 44.7498C276.654 44.867 276.456 44.9739 276.253 45.07C275.852 45.2768 275.459 45.4969 275.059 45.6837L273.825 46.1774L273.518 46.3041L273.205 46.3975L272.578 46.5777C271.755 46.8183 270.917 47.0055 270.07 47.138C269.65 47.1914 269.229 47.2114 268.816 47.2514L268.189 47.3048C267.982 47.3048 267.775 47.3048 267.575 47.3048H266.348C265.941 47.3048 265.541 47.2181 265.148 47.1781C264.367 47.0885 263.594 46.9458 262.833 46.7511C262.459 46.6642 262.092 46.5528 261.733 46.4176C261.373 46.2975 261.012 46.1974 260.666 46.0573L259.652 45.6037L259.151 45.3835L258.685 45.1167L257.724 44.583C257.417 44.4162 257.144 44.1894 256.857 43.996C256.57 43.8025 256.297 43.609 256.03 43.4089L255.276 42.7418C253.491 41.1878 252.024 39.303 250.954 37.1915C250.138 35.6037 249.569 33.9008 249.267 32.1414C249.191 31.8026 249.136 31.4595 249.1 31.1141C249.1 30.7939 249.054 30.487 249.027 30.2068C249 29.9266 248.98 29.6665 248.974 29.433C248.967 29.1995 248.974 28.9794 248.974 28.7659C248.974 28.3879 248.974 28.0943 248.974 27.8853C249.014 27.6985 249.027 27.5984 249.027 27.5984Z" fill="#EBEBEB"/>
<path d="M275.846 29.1928C275.626 29.2338 275.402 29.2495 275.179 29.2395H273.385C271.871 29.2395 269.756 29.2795 267.382 29.2795H267.262V27.9453C267.262 25.2769 267.262 22.8686 267.295 21.1208C267.295 20.2735 267.295 19.5798 267.335 19.0461C267.327 18.7939 267.343 18.5415 267.382 18.2922C267.413 18.5423 267.428 18.7941 267.429 19.0461C267.429 19.5798 267.429 20.2735 267.462 21.1208C267.462 22.8686 267.495 25.2835 267.495 27.9453V29.1394L267.382 29.026C269.77 29.026 271.884 29.026 273.385 29.066L275.179 29.0994C275.403 29.1123 275.626 29.1436 275.846 29.1928Z" fill="#E0E0E0"/>
<path d="M267.442 13.2289C267.561 13.7356 267.601 14.2576 267.562 14.7766C267.602 15.2934 267.561 15.8132 267.442 16.3176C267.323 15.8132 267.282 15.2934 267.322 14.7766C267.282 14.2576 267.323 13.7356 267.442 13.2289Z" fill="#E0E0E0"/>
<path d="M275.832 15.7239C275.563 16.1595 275.227 16.551 274.839 16.8846C274.505 17.2795 274.114 17.6214 273.678 17.8986C273.944 17.4622 274.277 17.0705 274.665 16.7379C275.001 16.3425 275.394 16.0006 275.832 15.7239Z" fill="#E0E0E0"/>
<path d="M280.735 21.0807C280.349 21.4141 279.923 21.6987 279.467 21.9279C279.051 22.2226 278.604 22.4709 278.133 22.6684C278.472 22.281 278.882 21.9617 279.341 21.7278C279.763 21.4304 280.235 21.2112 280.735 21.0807Z" fill="#E0E0E0"/>
<path d="M283.609 29.0326C282.209 29.1927 280.795 29.1927 279.394 29.0326C280.795 28.8814 282.208 28.8814 283.609 29.0326Z" fill="#E0E0E0"/>
<path d="M254.369 28.7525C253.04 28.9143 251.697 28.9143 250.367 28.7525C251.697 28.5908 253.04 28.5908 254.369 28.7525Z" fill="#E0E0E0"/>
<path d="M256.437 34.6764C255.986 35.176 255.48 35.6236 254.93 36.0106C254.43 36.4875 253.875 36.9019 253.276 37.2448C253.724 36.743 254.23 36.2952 254.783 35.9105C255.282 35.4329 255.837 35.0184 256.437 34.6764Z" fill="#E0E0E0"/>
<path d="M261.546 39.2461C261.248 39.862 260.904 40.4551 260.519 41.0206C260.2 41.6273 259.837 42.2093 259.432 42.7618C259.63 42.0993 259.929 41.4715 260.319 40.9005C260.638 40.2879 261.052 39.7296 261.546 39.2461Z" fill="#E0E0E0"/>
<path d="M267.442 45.1567C267.322 44.4608 267.282 43.7536 267.322 43.0486C267.282 42.3436 267.322 41.6364 267.442 40.9406C267.557 41.6369 267.593 42.3441 267.549 43.0486C267.593 43.7531 267.557 44.4603 267.442 45.1567Z" fill="#E0E0E0"/>
<path d="M276.533 42.3481C275.279 41.6943 274.198 40.7523 273.378 39.5996C273.927 40.0318 274.452 40.4927 274.952 40.9805C275.504 41.407 276.031 41.8636 276.533 42.3481Z" fill="#E0E0E0"/>
<path d="M280.795 37.7517C280.28 37.4033 279.812 36.9908 279.401 36.5243C278.932 36.1154 278.52 35.6466 278.173 35.13C278.685 35.4771 279.149 35.8898 279.554 36.3575C280.025 36.7675 280.442 37.2361 280.795 37.7517Z" fill="#E0E0E0"/>
<path d="M256.243 23.0821C255.782 22.7911 255.366 22.4337 255.01 22.0214C254.597 21.6644 254.24 21.2486 253.949 20.7872C254.408 21.0793 254.821 21.4366 255.176 21.8479C255.589 22.2059 255.949 22.6216 256.243 23.0821Z" fill="#E0E0E0"/>
<path d="M261.506 17.5384C261.054 17.2529 260.648 16.9022 260.299 16.4977C259.891 16.1501 259.538 15.7431 259.252 15.2903C259.704 15.5766 260.113 15.9272 260.465 16.331C260.87 16.68 261.22 17.0869 261.506 17.5384Z" fill="#E0E0E0"/>
<path d="M251.121 28.8726C251.123 24.2072 252.906 19.7187 256.105 16.3239C259.305 12.9291 263.68 10.8843 268.336 10.6072C267.976 10.6072 267.615 10.5671 267.249 10.5671C264.845 10.5671 262.465 11.0406 260.245 11.9606C258.024 12.8805 256.007 14.2289 254.307 15.9287C252.608 17.6285 251.26 19.6465 250.34 21.8674C249.42 24.0883 248.947 26.4687 248.947 28.8726C248.947 31.2765 249.42 33.6569 250.34 35.8778C251.26 38.0987 252.608 40.1167 254.307 41.8165C256.007 43.5163 258.024 44.8647 260.245 45.7846C262.465 46.7045 264.845 47.178 267.249 47.178C267.615 47.178 267.976 47.178 268.336 47.178C263.673 46.8989 259.294 44.848 256.094 41.445C252.893 38.042 251.115 33.5444 251.121 28.8726Z" fill="#F5F5F5"/>
<path d="M63.6223 12.5685H12.0988V94.009H63.6223V12.5685Z" fill="#E0E0E0"/>
<path d="M62.055 14.1028H13.4861V92.6748H62.055V14.1028Z" fill="#F5F5F5"/>
<path d="M57.1461 18.6792H37.7772V48.7391H57.1461V18.6792Z" fill="white"/>
<path d="M48.4887 21.3342C48.4984 21.4351 48.4869 21.5369 48.455 21.6331C48.423 21.7293 48.3713 21.8177 48.3032 21.8927C48.235 21.9678 48.152 22.0277 48.0593 22.0687C47.9666 22.1097 47.8664 22.1309 47.7651 22.1309C47.6637 22.1309 47.5635 22.1097 47.4709 22.0687C47.3782 22.0277 47.2951 21.9678 47.227 21.8927C47.1588 21.8177 47.1071 21.7293 47.0752 21.6331C47.0432 21.5369 47.0317 21.4351 47.0414 21.3342C47.0587 21.1542 47.1424 20.9872 47.2762 20.8656C47.41 20.744 47.5843 20.6766 47.7651 20.6766C47.9459 20.6766 48.1201 20.744 48.2539 20.8656C48.3877 20.9872 48.4715 21.1542 48.4887 21.3342Z" fill="#E0E0E0"/>
<path d="M37.6238 57.1046H18.2549V87.1645H37.6238V57.1046Z" fill="white"/>
<path d="M28.9665 59.7597C28.9679 59.9041 28.9262 60.0456 28.8468 60.1662C28.7674 60.2868 28.654 60.381 28.5208 60.4369C28.3877 60.4927 28.241 60.5077 28.0994 60.4798C27.9577 60.452 27.8276 60.3826 27.7255 60.2805C27.6234 60.1784 27.5541 60.0482 27.5262 59.9066C27.4984 59.7649 27.5133 59.6181 27.5692 59.485C27.625 59.3519 27.7193 59.2384 27.8398 59.159C27.9604 59.0796 28.1019 59.0379 28.2462 59.0392C28.4373 59.0392 28.6205 59.1151 28.7556 59.2502C28.8906 59.3854 28.9665 59.5686 28.9665 59.7597Z" fill="#E0E0E0"/>
<path d="M34.5357 18.6792H17.9949V42.1547H34.5357V18.6792Z" fill="white"/>
<path d="M26.8656 20.8072C26.8656 20.9259 26.8304 21.042 26.7644 21.1407C26.6985 21.2395 26.6047 21.3164 26.495 21.3619C26.3853 21.4073 26.2646 21.4192 26.1482 21.396C26.0318 21.3729 25.9248 21.3157 25.8409 21.2317C25.7569 21.1478 25.6997 21.0408 25.6766 20.9243C25.6534 20.8078 25.6653 20.6871 25.7107 20.5774C25.7562 20.4677 25.8331 20.3739 25.9318 20.308C26.0305 20.242 26.1466 20.2068 26.2653 20.2068C26.4245 20.2068 26.5772 20.27 26.6898 20.3826C26.8023 20.4952 26.8656 20.648 26.8656 20.8072Z" fill="#E0E0E0"/>
<path d="M57.7875 57.514L40.0984 59.5111L41.2048 69.3154L58.8939 67.3183L57.7875 57.514Z" fill="white"/>
<path d="M49.756 60.3734C49.756 60.4948 49.72 60.6134 49.6526 60.7144C49.5852 60.8153 49.4893 60.8939 49.3772 60.9404C49.2651 60.9869 49.1417 60.999 49.0227 60.9753C48.9037 60.9516 48.7943 60.8932 48.7085 60.8074C48.6227 60.7215 48.5642 60.6122 48.5406 60.4931C48.5169 60.3741 48.529 60.2507 48.5755 60.1385C48.6219 60.0264 48.7006 59.9305 48.8015 59.8631C48.9024 59.7956 49.021 59.7596 49.1424 59.7596C49.3051 59.7596 49.4612 59.8243 49.5763 59.9394C49.6914 60.0545 49.756 60.2106 49.756 60.3734Z" fill="#E0E0E0"/>
<path d="M35.0359 63.929C35.0359 64.0091 31.9945 64.0758 28.2462 64.0758C24.4978 64.0758 21.4364 64.0358 21.4364 63.929C21.4364 63.8223 24.4711 63.7889 28.2262 63.7889C31.9812 63.7889 35.0359 63.8757 35.0359 63.929Z" fill="#E0E0E0"/>
<path d="M35.0359 66.1105C35.0359 66.1906 31.9945 66.2506 28.2462 66.2506C24.4978 66.2506 21.4364 66.1906 21.4364 66.1105C21.4364 66.0305 24.4711 65.9637 28.2262 65.9637C31.9812 65.9637 35.0359 66.0305 35.0359 66.1105Z" fill="#E0E0E0"/>
<path d="M35.0359 68.2586C35.0359 68.3386 31.9945 68.4053 28.2462 68.4053C24.4978 68.4053 21.4364 68.3386 21.4364 68.2586C21.4364 68.1785 24.4711 68.1118 28.2262 68.1118C31.9812 68.1118 35.0359 68.1785 35.0359 68.2586Z" fill="#E0E0E0"/>
<path d="M35.0359 70.4067C35.0359 70.4868 31.9945 70.5535 28.2462 70.5535C24.4978 70.5535 21.4364 70.4868 21.4364 70.4067C21.4364 70.3266 24.4711 70.2666 28.2262 70.2666C31.9812 70.2666 35.0359 70.3333 35.0359 70.4067Z" fill="#E0E0E0"/>
<path d="M35.0359 72.5614C35.0359 72.6415 31.9945 72.7015 28.2462 72.7015C24.4978 72.7015 21.4364 72.6415 21.4364 72.5614C21.4364 72.4814 24.4711 72.4147 28.2262 72.4147C31.9812 72.4147 35.0359 72.4814 35.0359 72.5614Z" fill="#E0E0E0"/>
<path d="M35.0359 74.7096C35.0359 74.7896 31.9945 74.8563 28.2462 74.8563C24.4978 74.8563 21.4364 74.7896 21.4364 74.7096C21.4364 74.6295 24.4711 74.5695 28.2262 74.5695C31.9812 74.5695 35.0359 74.6028 35.0359 74.7096Z" fill="#E0E0E0"/>
<path d="M35.0359 76.8643C35.0359 76.9443 31.9945 77.0044 28.2462 77.0044C24.4978 77.0044 21.4364 76.9443 21.4364 76.8643C21.4364 76.7842 24.4711 76.7175 28.2262 76.7175C31.9812 76.7175 35.0359 76.7842 35.0359 76.8643Z" fill="#E0E0E0"/>
<path d="M56.1189 61.6543C56.1189 61.7343 53.1242 62.2213 49.4492 62.7483C45.7742 63.2754 42.7128 63.6289 42.6994 63.5555C42.6861 63.4822 45.6941 62.9818 49.4092 62.4615C53.1242 61.9411 56.1189 61.5742 56.1189 61.6543Z" fill="#E0E0E0"/>
<path d="M56.3857 63.0018C56.3857 63.0752 53.3977 63.5688 49.6826 64.0892C45.9676 64.6095 42.9462 64.9764 42.9396 64.8964C42.9329 64.8163 45.9276 64.3293 49.6426 63.8023C53.3576 63.2753 56.379 62.9217 56.3857 63.0018Z" fill="#E0E0E0"/>
<path d="M56.6325 64.2427C56.6325 64.3227 53.6444 64.8097 49.9627 65.3367C46.2811 65.8637 43.2263 66.2173 43.2197 66.1372C43.213 66.0572 46.2077 65.5702 49.8894 65.0499C53.5711 64.5295 56.6258 64.1626 56.6325 64.2427Z" fill="#E0E0E0"/>
<path d="M55.4519 24.9633C55.4519 25.0434 52.017 25.1101 47.7751 25.1101C43.5332 25.1101 40.1116 25.0434 40.1116 24.9633C40.1116 24.8833 43.5465 24.8232 47.7818 24.8232C52.017 24.8232 55.4519 24.8833 55.4519 24.9633Z" fill="#E0E0E0"/>
<path d="M55.4519 26.2442C55.4519 26.3242 52.017 26.3909 47.7751 26.3909C43.5332 26.3909 40.1116 26.3242 40.1116 26.2442C40.1116 26.1641 43.5465 26.0974 47.7818 26.0974C52.017 26.0974 55.4519 26.1641 55.4519 26.2442Z" fill="#E0E0E0"/>
<path d="M55.4519 27.5251C55.4519 27.6051 52.017 27.6652 47.7751 27.6652C43.5332 27.6652 40.1116 27.6051 40.1116 27.5251C40.1116 27.445 43.5465 27.3783 47.7818 27.3783C52.017 27.3783 55.4519 27.445 55.4519 27.5251Z" fill="#E0E0E0"/>
<path d="M55.4519 28.7991C55.4519 28.8792 52.017 28.9459 47.7751 28.9459C43.5332 28.9459 40.1116 28.8792 40.1116 28.7991C40.1116 28.7191 43.5465 28.6591 47.7818 28.6591C52.017 28.6591 55.4519 28.7258 55.4519 28.7991Z" fill="#E0E0E0"/>
<path d="M55.4519 30.0801C55.4519 30.1601 52.017 30.2268 47.7751 30.2268C43.5332 30.2268 40.1116 30.1601 40.1116 30.0801C40.1116 30 43.5265 29.9066 47.7618 29.9066C51.997 29.9066 55.4519 30 55.4519 30.0801Z" fill="#E0E0E0"/>
<path d="M55.4519 31.3609C55.4519 31.441 52.017 31.501 47.7751 31.501C43.5332 31.501 40.1116 31.441 40.1116 31.3609C40.1116 31.2809 43.5265 31.2408 47.7618 31.2408C51.997 31.2408 55.4519 31.2809 55.4519 31.3609Z" fill="#E0E0E0"/>
<path d="M55.4519 32.6418C55.4519 32.7151 52.017 32.7819 47.7751 32.7819C43.5332 32.7819 40.1116 32.7151 40.1116 32.6418C40.1116 32.5684 43.5465 32.495 47.7818 32.495C52.017 32.495 55.4519 32.575 55.4519 32.6418Z" fill="#E0E0E0"/>
<path d="M55.4519 36.4309C55.4519 36.5109 52.017 36.5776 47.7751 36.5776C43.5332 36.5776 40.1116 36.5109 40.1116 36.4309C40.1116 36.3508 43.5465 36.2908 47.7818 36.2908C52.017 36.2908 55.4519 36.3508 55.4519 36.4309Z" fill="#E0E0E0"/>
<path d="M55.5453 37.7851C55.5453 37.8651 52.1104 37.9252 47.8685 37.9252C43.6265 37.9252 40.1983 37.8651 40.1983 37.7851C40.1983 37.705 43.6332 37.6383 47.8685 37.6383C52.1037 37.6383 55.5453 37.705 55.5453 37.7851Z" fill="#E0E0E0"/>
<path d="M55.652 39.1326C55.652 39.2127 52.2171 39.2794 47.9819 39.2794C43.7466 39.2794 40.305 39.2127 40.305 39.1326C40.305 39.0526 43.7399 38.9926 47.9819 38.9926C52.2238 38.9926 55.652 39.0526 55.652 39.1326Z" fill="#E0E0E0"/>
<path d="M55.7587 40.487C55.7587 40.567 52.3238 40.6271 48.0886 40.6271C43.8533 40.6271 40.4117 40.5804 40.4117 40.487C40.4117 40.3936 43.8466 40.3402 48.0886 40.3402C52.3305 40.3402 55.7587 40.4069 55.7587 40.487Z" fill="#E0E0E0"/>
<path d="M55.8654 41.8344C55.8654 41.9145 52.4305 41.9812 48.1953 41.9812C43.96 41.9812 40.5251 41.9145 40.5251 41.8344C40.5251 41.7544 43.96 41.6943 48.1953 41.6943C52.4305 41.6943 55.8654 41.7544 55.8654 41.8344Z" fill="#E0E0E0"/>
<path d="M55.9788 43.1888C55.9788 43.2688 52.5439 43.3288 48.302 43.3288C44.0601 43.3288 40.6318 43.2688 40.6318 43.1888C40.6318 43.1087 44.0667 43.042 48.302 43.042C52.5373 43.042 55.9788 43.1087 55.9788 43.1888Z" fill="#E0E0E0"/>
<path d="M306.993 300.979C306.993 301.079 238.295 301.153 153.503 301.153C68.7113 301.153 0 301.079 0 300.979C0 300.879 68.698 300.806 153.503 300.806C238.309 300.806 306.993 300.886 306.993 300.979Z" fill="#263238"/>
<path d="M224.362 13.9027H84.2184C80.8148 13.9027 78.0556 16.6625 78.0556 20.0668V224.195C78.0556 227.599 80.8148 230.359 84.2184 230.359H224.362C227.766 230.359 230.525 227.599 230.525 224.195V20.0668C230.525 16.6625 227.766 13.9027 224.362 13.9027Z" fill="#E0E0E0"/>
<path d="M224.369 230.359L224.843 230.326C225.295 230.283 225.742 230.194 226.176 230.059C227.052 229.781 227.854 229.31 228.524 228.681C229.193 228.051 229.713 227.28 230.045 226.423C230.275 225.825 230.41 225.195 230.445 224.555C230.478 223.888 230.445 223.168 230.445 222.421C230.445 220.926 230.445 219.292 230.445 217.524C230.445 213.982 230.445 209.892 230.445 205.296C230.445 186.891 230.445 160.26 230.398 127.358C230.398 110.907 230.398 92.8817 230.398 73.5355C230.398 63.8625 230.398 53.8692 230.398 43.5557C230.398 38.4012 230.398 33.1733 230.398 27.872C230.398 25.2036 230.398 22.5351 230.398 19.8667C230.361 18.5356 229.881 17.2548 229.036 16.2259C228.191 15.197 227.028 14.4783 225.73 14.183C225.072 14.048 224.399 13.9965 223.729 14.0295H84.2317C82.6852 14.031 81.198 14.6255 80.0765 15.6906C78.9607 16.7544 78.2968 18.2067 78.2223 19.7466C78.2223 22.8554 78.2223 25.9774 78.2223 29.0861V83.6756C78.2223 107.351 78.2223 130.193 78.2223 151.947C78.2223 173.702 78.2223 194.375 78.2223 213.722C78.2223 216.141 78.2223 218.538 78.2223 220.913C78.2223 222.1 78.2223 223.295 78.2223 224.462C78.2677 225.617 78.6477 226.734 79.3162 227.677C79.9887 228.618 80.9136 229.349 81.9841 229.786C82.5083 229.996 83.0576 230.137 83.6181 230.206C84.1784 230.253 84.752 230.239 85.3256 230.246H117.88L195.796 230.293L216.979 230.326L195.796 230.359L117.88 230.406H85.2589C84.692 230.406 84.1184 230.406 83.5248 230.406C82.9407 230.336 82.3687 230.188 81.824 229.966C80.7173 229.51 79.7643 228.748 79.0775 227.768C78.3908 226.787 77.9991 225.631 77.9489 224.435C77.9489 223.248 77.9489 222.074 77.9489 220.88V213.722C77.9489 194.375 77.9489 173.695 77.9489 151.947C77.9489 130.2 77.9489 107.351 77.9489 83.6756C77.9489 71.8366 77.9489 59.7998 77.9489 47.565V29.0928C77.9489 25.9908 77.9489 22.8887 77.9489 19.7533C78.0293 18.1339 78.7292 16.6074 79.9037 15.4898C81.0782 14.3722 82.6373 13.749 84.2584 13.7493H223.702C224.393 13.7232 225.084 13.7769 225.763 13.9094C227.121 14.2166 228.338 14.9666 229.223 16.0414C230.108 17.1163 230.611 18.4549 230.652 19.8467C230.652 22.5151 230.652 25.1836 230.652 27.852V43.5557C230.652 53.8559 230.652 63.8491 230.652 73.5355C230.652 92.8817 230.652 110.894 230.652 127.358C230.652 160.26 230.652 186.891 230.605 205.296C230.605 209.892 230.605 213.968 230.605 217.524C230.605 219.292 230.605 220.926 230.605 222.421C230.605 223.174 230.605 223.882 230.605 224.562C230.569 225.207 230.43 225.843 230.192 226.443C229.797 227.444 229.152 228.326 228.317 229.005C227.719 229.481 227.042 229.849 226.317 230.092C225.866 230.223 225.404 230.308 224.936 230.346L224.369 230.359Z" fill="#263238"/>
<g opacity="0.3">
<path d="M91.3617 225.469H219.327L217.926 198.845V184.676L91.3617 204.455V225.469Z" fill="black"/>
</g>
<g opacity="0.3">
<path d="M192.768 14.343L195.676 22.9754V27.1982H192.394L192.768 14.343Z" fill="black"/>
</g>
<path d="M84.8587 22.5751V221.413H188.566H223.729V22.5751H84.8587Z" fill="white"/>
<path d="M223.729 185.856C223.729 185.856 223.729 185.603 223.729 185.096C223.729 184.589 223.729 183.828 223.729 182.834C223.729 180.833 223.729 177.884 223.729 174.035C223.729 166.324 223.729 155.043 223.689 140.72C223.689 112.034 223.689 71.2406 223.635 22.5751L223.769 22.7085H84.8987L85.0455 22.5618V22.7419C85.0455 99.1791 85.0455 168.979 85.0054 221.4L84.8987 221.287L160.713 221.34L84.8987 221.387H84.7853V221.28C84.7853 168.859 84.7853 99.059 84.7853 22.6218V22.2949H84.9321H223.802H223.929V22.5684C223.929 71.2673 223.889 112.054 223.875 140.713C223.875 155.036 223.875 166.317 223.842 174.029C223.842 177.878 223.842 180.833 223.842 182.828C223.842 183.822 223.842 184.576 223.842 185.089C223.842 185.603 223.729 185.856 223.729 185.856Z" fill="#263238"/>
<path d="M126.724 8.51245H188.553C189.669 8.51774 190.738 8.96498 191.525 9.75633C192.313 10.5477 192.755 11.6187 192.755 12.7352V28.8659H122.503V12.7352C122.503 12.1807 122.612 11.6316 122.824 11.1193C123.036 10.6069 123.347 10.1414 123.739 9.74928C124.131 9.35716 124.597 9.04611 125.109 8.83389C125.621 8.62168 126.17 8.51245 126.724 8.51245Z" fill="#263238"/>
<path d="M166.576 0.847412H148.694L150.782 16.1776H164.255L166.576 0.847412Z" fill="#263238"/>
<path d="M188.253 8.51249C188.253 8.59254 174.54 8.65925 157.632 8.65925C140.724 8.65925 127.018 8.59254 127.018 8.51249C127.018 8.43243 140.724 8.36572 157.632 8.36572C174.54 8.36572 188.253 8.43243 188.253 8.51249Z" fill="#455A64"/>
<path d="M124.077 25.6105C123.99 25.6105 123.923 22.7286 123.923 19.1662C123.923 15.6039 123.99 12.7286 124.077 12.7286C124.163 12.7286 124.223 15.6105 124.223 19.1662C124.223 22.7219 124.15 25.6105 124.077 25.6105Z" fill="#455A64"/>
<path d="M190.494 24.0828C190.344 22.1387 190.295 20.1881 190.347 18.239C190.295 16.2876 190.344 14.3348 190.494 12.3884C190.574 12.3884 190.64 15.0102 190.64 18.239C190.64 21.4678 190.574 24.0828 190.494 24.0828Z" fill="#455A64"/>
<path d="M187.105 26.798C187.105 26.878 173.032 26.9447 155.678 26.9447C138.323 26.9447 124.243 26.878 124.243 26.798C124.243 26.7179 138.31 26.6445 155.678 26.6445C173.046 26.6445 187.105 26.7112 187.105 26.798Z" fill="#455A64"/>
<path d="M206.147 60.7336H129.452V65.4501H206.147V60.7336Z" fill="#E0E0E0"/>
<path d="M164.248 70.3667H129.452V75.0498H164.248V70.3667Z" fill="#E0E0E0"/>
<path d="M119.081 58.7257H106.495C105.073 58.7257 103.921 59.8786 103.921 61.3007V73.8891C103.921 75.3112 105.073 76.4641 106.495 76.4641H119.081C120.503 76.4641 121.655 75.3112 121.655 73.8891V61.3007C121.655 59.8786 120.503 58.7257 119.081 58.7257Z" fill="#E4F862"/>
<path d="M112.531 71.8144L107.562 67.9785L108.903 66.244L112.231 68.819L116.973 63.3688L118.621 64.8031L112.531 71.8144Z" fill="white"/>
<path d="M206.147 89.933H129.452V94.6494H206.147V89.933Z" fill="#E0E0E0"/>
<path d="M164.248 99.5593H129.452V104.242H164.248V99.5593Z" fill="#E0E0E0"/>
<path d="M119.081 87.9183H106.495C105.073 87.9183 103.921 89.0712 103.921 90.4934V103.082C103.921 104.504 105.073 105.657 106.495 105.657H119.081C120.503 105.657 121.655 104.504 121.655 103.082V90.4934C121.655 89.0712 120.503 87.9183 119.081 87.9183Z" fill="#E4F862"/>
<path d="M112.531 101.007L107.562 97.1711L108.903 95.4366L112.231 98.0117L116.973 92.5614L118.621 93.9957L112.531 101.007Z" fill="white"/>
<path d="M206.147 121.214H129.452V125.93H206.147V121.214Z" fill="#E0E0E0"/>
<path d="M164.248 130.84H129.452V135.523H164.248V130.84Z" fill="#E0E0E0"/>
<path d="M206.147 150.126H129.452V154.843H206.147V150.126Z" fill="#E0E0E0"/>
<path d="M164.248 159.759H129.452V164.442H164.248V159.759Z" fill="#E0E0E0"/>
<path d="M119.081 119.199H106.495C105.073 119.199 103.921 120.352 103.921 121.774V134.362C103.921 135.784 105.073 136.937 106.495 136.937H119.081C120.503 136.937 121.655 135.784 121.655 134.362V121.774C121.655 120.352 120.503 119.199 119.081 119.199Z" fill="#E4F862"/>
<path d="M112.531 132.288L107.562 128.452L108.903 126.717L112.231 129.292L116.973 123.842L118.621 125.276L112.531 132.288Z" fill="white"/>
<path d="M119.328 166.971H106.242C105.546 166.971 104.879 166.695 104.386 166.203C103.893 165.712 103.616 165.045 103.614 164.349V151.26C103.616 150.564 103.893 149.897 104.386 149.406C104.879 148.914 105.546 148.638 106.242 148.638H119.328C119.672 148.638 120.013 148.706 120.331 148.838C120.649 148.97 120.938 149.163 121.181 149.406C121.425 149.65 121.618 149.939 121.749 150.257C121.881 150.575 121.949 150.916 121.949 151.26V164.349C121.949 165.044 121.673 165.711 121.181 166.203C120.69 166.694 120.023 166.971 119.328 166.971ZM106.242 149.239C105.711 149.239 105.202 149.45 104.827 149.825C104.452 150.2 104.241 150.709 104.241 151.24V164.329C104.241 164.86 104.452 165.369 104.827 165.744C105.202 166.119 105.711 166.33 106.242 166.33H119.328C119.858 166.33 120.367 166.119 120.743 165.744C121.118 165.369 121.329 164.86 121.329 164.329V151.26C121.329 150.729 121.118 150.22 120.743 149.845C120.367 149.47 119.858 149.259 119.328 149.259L106.242 149.239Z" fill="#333745"/>
<path d="M206.147 183.208H129.452V187.924H206.147V183.208Z" fill="#E0E0E0"/>
<path d="M164.248 192.841H129.452V197.524H164.248V192.841Z" fill="#E0E0E0"/>
<path d="M119.328 200.053H106.242C105.549 200.042 104.888 199.763 104.397 199.274C103.907 198.784 103.626 198.124 103.614 197.431V184.342C103.624 183.648 103.904 182.986 104.395 182.495C104.886 182.004 105.548 181.724 106.242 181.714H119.328C120.024 181.716 120.69 181.993 121.182 182.486C121.673 182.979 121.949 183.646 121.949 184.342V197.431C121.947 198.126 121.67 198.791 121.179 199.283C120.688 199.774 120.022 200.051 119.328 200.053ZM106.242 182.314C105.711 182.314 105.202 182.525 104.827 182.9C104.452 183.276 104.241 183.785 104.241 184.315V197.404C104.241 197.935 104.452 198.444 104.827 198.819C105.202 199.195 105.711 199.405 106.242 199.405H119.328C119.858 199.405 120.367 199.195 120.743 198.819C121.118 198.444 121.329 197.935 121.329 197.404V184.342C121.329 183.811 121.118 183.302 120.743 182.927C120.367 182.552 119.858 182.341 119.328 182.341L106.242 182.314Z" fill="#333745"/>
<path d="M196.683 42.4816H120.221V49.0326H196.683V42.4816Z" fill="#333745"/>
<path d="M133.414 285.249C133.414 285.249 131.113 269.418 131.307 260.212C131.5 251.006 131.307 240.639 131.307 240.639H132.367C132.367 240.639 131.653 258.918 132.434 269.945C133.214 280.973 135.275 285.249 135.275 285.249H133.428" fill="#263238"/>
<path d="M140.271 222.834C140.106 222.27 139.768 221.773 139.304 221.413C138.944 221.241 138.551 221.152 138.153 221.152C137.755 221.152 137.362 221.241 137.002 221.413C133.794 222.547 130.953 228.525 129.666 231.667L133.914 246.05C141.591 238.898 142.925 229.552 140.271 222.834Z" fill="#455A64"/>
<path d="M139.057 221.994C139.047 222.059 139.026 222.122 138.997 222.18C138.943 222.321 138.87 222.494 138.79 222.707C138.603 223.154 138.343 223.815 138.03 224.629C137.403 226.256 136.602 228.531 135.889 231.1C135.175 233.668 134.688 236.023 134.388 237.771C134.235 238.631 134.121 239.325 134.048 239.812C134.014 240.032 133.981 240.219 133.961 240.366C133.952 240.432 133.936 240.497 133.914 240.559C133.908 240.493 133.908 240.426 133.914 240.359C133.914 240.212 133.914 240.026 133.974 239.799C134.028 239.312 134.121 238.611 134.261 237.751C134.618 235.501 135.104 233.274 135.715 231.08C136.325 228.884 137.055 226.724 137.903 224.609C138.236 223.802 138.51 223.148 138.717 222.707C138.817 222.501 138.897 222.327 138.957 222.194C138.985 222.125 139.018 222.058 139.057 221.994Z" fill="#263238"/>
<path d="M132.02 249.465C130.089 248.359 128.473 246.775 127.329 244.865C126.184 242.955 125.549 240.783 125.484 238.558C125.33 235.376 126.311 232.254 127.418 229.272C127.487 229.005 127.644 228.77 127.865 228.605C128.046 228.539 128.241 228.521 128.431 228.551C128.621 228.582 128.8 228.66 128.952 228.778C131.853 230.426 133.621 233.575 134.541 236.783C135.214 238.907 135.441 241.146 135.208 243.361C134.841 245.689 133.732 247.837 132.047 249.485" fill="#455A64"/>
<path d="M132.02 249.465C132.02 249.465 132.02 249.398 132.02 249.272C132.02 249.145 132.02 248.945 132.02 248.718C132.02 248.244 132.02 247.55 131.96 246.717C131.845 244.496 131.598 242.284 131.22 240.092C130.773 237.524 130.239 235.229 129.839 233.561C129.646 232.754 129.486 232.087 129.372 231.593C129.319 231.38 129.279 231.2 129.246 231.06C129.235 230.995 129.235 230.93 129.246 230.866C129.246 230.866 129.246 230.933 129.306 231.053C129.366 231.173 129.399 231.366 129.466 231.58C129.592 232.04 129.773 232.707 129.993 233.535C130.413 235.189 130.973 237.49 131.42 240.066C131.795 242.271 132.018 244.5 132.087 246.737C132.087 247.59 132.087 248.284 132.087 248.738C132.087 248.965 132.087 249.145 132.087 249.292C132.072 249.352 132.05 249.41 132.02 249.465Z" fill="#263238"/>
<g opacity="0.3">
<path d="M132.02 249.465C130.089 248.359 128.473 246.775 127.329 244.865C126.184 242.955 125.549 240.783 125.484 238.558C125.33 235.376 126.311 232.254 127.418 229.272C127.487 229.005 127.644 228.77 127.865 228.605C128.046 228.539 128.241 228.521 128.431 228.551C128.621 228.582 128.8 228.66 128.952 228.778C131.853 230.426 133.621 233.575 134.541 236.783C135.214 238.907 135.441 241.146 135.208 243.361C134.841 245.689 133.732 247.837 132.047 249.485" fill="black"/>
</g>
<path d="M136.522 273.681C140.451 274.542 143.679 277.31 147.467 278.658C149.968 279.552 152.803 279.865 154.804 281.62C154.324 280.406 153.19 279.618 152.083 278.905C148.964 276.961 145.637 275.372 142.165 274.168C140.384 273.554 138.45 273.041 136.636 273.548" fill="#455A64"/>
<path d="M130.82 277.177C125.904 277.097 120.728 272.914 115.839 272.661C120.955 271.013 128.292 272.36 130.82 277.177Z" fill="#455A64"/>
<path d="M132.767 265.396C135.301 264.566 138.002 264.383 140.624 264.862C143.237 265.342 145.805 266.041 148.301 266.95C148.048 265.242 146.667 263.961 145.366 262.827C144.419 261.939 143.387 261.146 142.285 260.459C141.179 259.763 139.896 259.4 138.59 259.412C137.808 259.464 137.044 259.673 136.344 260.026C135.644 260.379 135.022 260.868 134.515 261.466C133.523 262.553 132.91 263.931 132.767 265.396Z" fill="#455A64"/>
<path d="M122.683 259.959C119.588 257.29 114.899 257.57 110.831 257.664C117.367 260.779 123.531 264.621 129.206 269.118C129.372 266.243 126.591 263.294 122.683 259.959Z" fill="#455A64"/>
<g opacity="0.3">
<path d="M122.683 259.959C119.588 257.29 114.899 257.57 110.831 257.664C117.367 260.779 123.531 264.621 129.206 269.118C129.372 266.243 126.591 263.294 122.683 259.959Z" fill="black"/>
</g>
<path d="M134.154 256.31C135.663 255.26 137.253 254.334 138.91 253.541C140.537 252.801 142.058 251.62 143.632 250.773C145.673 249.665 147.441 248.104 149.315 246.77C151.189 245.436 153.243 244.162 155.531 243.801C153.644 243.463 151.704 243.575 149.868 244.128C148.037 244.677 146.253 245.37 144.533 246.203C142.118 247.29 139.664 248.404 137.689 250.166C135.715 251.927 133.934 253.675 134.141 256.316" fill="#455A64"/>
<path d="M147.374 277.177L147.22 277.11L146.794 276.89C146.42 276.69 145.893 276.396 145.22 276.063C144.893 275.889 144.553 275.703 144.126 275.516C143.699 275.329 143.299 275.129 142.845 274.935C141.87 274.498 140.859 274.145 139.824 273.881C138.795 273.593 137.711 273.566 136.669 273.801C136.215 273.897 135.769 274.028 135.335 274.195C134.96 274.35 134.599 274.535 134.255 274.749C133.764 275.064 133.316 275.44 132.921 275.869C132.634 276.176 132.494 276.363 132.48 276.356C132.505 276.305 132.534 276.256 132.567 276.21C132.634 276.116 132.734 275.989 132.867 275.829C133.253 275.374 133.702 274.976 134.201 274.648C134.545 274.421 134.909 274.224 135.288 274.061C135.722 273.889 136.168 273.748 136.622 273.641C137.689 273.394 138.801 273.417 139.857 273.708C140.904 273.974 141.924 274.336 142.905 274.789C143.359 274.989 143.786 275.189 144.179 275.389C144.573 275.589 144.946 275.769 145.273 275.956C145.94 276.303 146.46 276.623 146.82 276.83L147.234 277.083C147.334 277.137 147.381 277.17 147.374 277.177Z" fill="#263238"/>
<path d="M127.185 274.735C127.291 274.749 127.394 274.778 127.491 274.822C127.765 274.923 128.033 275.041 128.292 275.176C129.151 275.612 129.942 276.171 130.64 276.837C131.335 277.505 131.926 278.274 132.394 279.118C132.538 279.372 132.665 279.635 132.774 279.905C132.822 280.003 132.858 280.106 132.881 280.212C132.881 280.212 132.667 279.805 132.287 279.185C131.796 278.371 131.202 277.624 130.52 276.963C129.83 276.31 129.062 275.745 128.232 275.282C127.592 274.935 127.171 274.769 127.185 274.735Z" fill="#263238"/>
<path d="M116.306 259.712C116.378 259.723 116.447 259.743 116.513 259.772L117.107 259.979L118.034 260.326C118.401 260.459 118.794 260.659 119.234 260.853C121.541 261.919 123.695 263.29 125.637 264.929C126.694 265.843 127.69 266.826 128.619 267.871C129.466 268.845 130.179 269.759 130.74 270.539C131.3 271.32 131.727 272 132.02 272.46L132.354 272.987C132.395 273.046 132.431 273.109 132.46 273.174C132.41 273.124 132.365 273.068 132.327 273.007C132.24 272.887 132.114 272.721 131.96 272.494C131.653 272.047 131.213 271.4 130.626 270.612C130.039 269.825 129.332 268.925 128.485 267.944C127.558 266.91 126.565 265.939 125.511 265.035C123.58 263.403 121.448 262.024 119.168 260.933C118.727 260.733 118.341 260.526 117.987 260.379L117.08 260.059L116.506 259.819L116.306 259.712Z" fill="#263238"/>
<path d="M140.157 262.62C140.024 262.619 139.892 262.601 139.764 262.567L139.317 262.487C139.137 262.454 138.93 262.454 138.71 262.427C137.545 262.328 136.375 262.56 135.335 263.094C134.765 263.391 134.245 263.776 133.794 264.235C133.419 264.602 133.088 265.012 132.807 265.456C132.552 265.869 132.329 266.302 132.14 266.75C132.15 266.616 132.184 266.485 132.24 266.363C132.363 266.025 132.519 265.701 132.707 265.396C132.981 264.933 133.311 264.505 133.688 264.121C134.33 263.449 135.12 262.935 135.995 262.62C136.87 262.305 137.806 262.198 138.73 262.307C138.957 262.307 139.163 262.347 139.337 262.387L139.79 262.5C139.917 262.527 140.04 262.567 140.157 262.62Z" fill="#263238"/>
<path d="M145.086 247.29L144.899 247.404L144.352 247.704C143.872 247.964 143.185 248.338 142.352 248.831C141.518 249.325 140.544 249.939 139.504 250.686C138.37 251.482 137.308 252.375 136.329 253.354C135.821 253.855 135.383 254.423 135.028 255.042C134.701 255.656 134.395 256.256 134.114 256.83C133.605 257.842 133.149 258.879 132.747 259.939C132.483 260.654 132.26 261.385 132.08 262.127C131.96 262.654 131.913 262.954 131.893 262.947C131.885 262.876 131.885 262.805 131.893 262.734C131.893 262.587 131.94 262.38 131.994 262.113C132.146 261.361 132.354 260.621 132.614 259.899C132.998 258.827 133.443 257.778 133.948 256.757C134.228 256.183 134.535 255.582 134.855 254.962C135.216 254.326 135.665 253.745 136.189 253.234C137.174 252.249 138.248 251.355 139.397 250.566C140.451 249.825 141.438 249.232 142.278 248.738C143.119 248.244 143.819 247.897 144.279 247.657L144.839 247.39C144.917 247.347 145 247.313 145.086 247.29Z" fill="#263238"/>
<path d="M131.3 262.18C131.252 262.044 131.221 261.903 131.206 261.76C131.146 261.46 131.073 261.093 130.986 260.626C130.749 259.379 130.44 258.147 130.059 256.937C129.662 255.731 129.192 254.55 128.652 253.401L128.178 252.347C128.109 252.223 128.055 252.091 128.018 251.953C128.105 252.067 128.179 252.19 128.238 252.32C128.365 252.561 128.552 252.907 128.765 253.348C129.342 254.487 129.83 255.669 130.226 256.883C130.612 258.101 130.909 259.345 131.113 260.606C131.186 261.086 131.24 261.48 131.273 261.753C131.297 261.894 131.306 262.037 131.3 262.18Z" fill="#263238"/>
<path d="M130.946 250.993C130.794 249.121 130.249 247.302 129.346 245.656C128.13 243.409 126.439 241.455 124.389 239.93C122.339 238.406 119.981 237.348 117.48 236.83L128.472 253.214L129.893 256.143C130.782 254.582 131.151 252.778 130.946 250.993Z" fill="#455A64"/>
<path d="M146.714 283.287H121.155V287.817H146.714V283.287Z" fill="#FF715B"/>
<path d="M123.063 286.923L125.237 300.979H142.212L144.806 286.923H123.063Z" fill="#FF715B"/>
<path d="M146.7 287.824C146.7 287.877 140.931 287.917 133.821 287.917C126.711 287.917 120.948 287.877 120.948 287.824C120.948 287.77 126.711 287.737 133.821 287.737C140.931 287.737 146.7 287.777 146.7 287.824Z" fill="#263238"/>
<path d="M241.25 125.697L239.916 122.475C240.743 119.87 240.743 117.074 239.916 114.469C239.145 112.024 237.683 109.855 235.707 108.222C233.731 106.589 231.325 105.563 228.779 105.267C226.233 104.972 223.656 105.419 221.358 106.555C219.061 107.691 217.14 109.467 215.829 111.67C214.518 113.873 213.872 116.408 213.969 118.97C214.066 121.531 214.902 124.01 216.375 126.108C217.849 128.205 219.898 129.832 222.275 130.791C224.652 131.75 227.255 132.001 229.771 131.514C232.89 130.915 235.689 129.212 237.655 126.717L241.25 125.697Z" fill="white"/>
<path d="M241.25 125.697L241.03 125.77L240.363 125.97L237.695 126.751C237.687 126.754 237.679 126.755 237.67 126.755C237.662 126.755 237.654 126.752 237.646 126.749C237.639 126.745 237.632 126.74 237.627 126.733C237.621 126.726 237.617 126.719 237.615 126.711C237.612 126.695 237.612 126.679 237.615 126.664L237.728 126.731C236.392 128.46 234.651 129.835 232.659 130.733C231.351 131.303 229.963 131.67 228.544 131.821C226.923 131.977 225.287 131.836 223.715 131.407C221.982 130.921 220.361 130.099 218.947 128.986C217.404 127.791 216.148 126.266 215.272 124.523C214.34 122.657 213.845 120.604 213.824 118.519C213.807 116.335 214.33 114.181 215.345 112.248C216.353 110.285 217.839 108.607 219.667 107.371C221.405 106.193 223.39 105.429 225.469 105.136C227.423 104.873 229.411 105.053 231.285 105.663C233.014 106.215 234.615 107.106 235.994 108.285C237.239 109.35 238.276 110.634 239.056 112.074L239.543 113.095C239.696 113.435 239.803 113.762 239.929 114.116C240.16 114.766 240.332 115.436 240.443 116.117C240.818 118.255 240.66 120.452 239.983 122.515V122.475C240.403 123.509 240.736 124.322 240.963 124.89C241.07 125.15 241.15 125.356 241.21 125.51C241.241 125.576 241.265 125.646 241.283 125.717C241.283 125.717 241.243 125.637 241.177 125.497L240.903 124.876C240.663 124.322 240.316 123.542 239.869 122.521C239.866 122.515 239.864 122.508 239.864 122.501C239.864 122.494 239.866 122.487 239.869 122.481C240.509 120.434 240.642 118.261 240.256 116.15C240.138 115.483 239.961 114.826 239.729 114.189C239.603 113.862 239.496 113.522 239.342 113.188C239.189 112.855 239.022 112.521 238.856 112.188C238.083 110.777 237.059 109.52 235.834 108.479C234.473 107.336 232.9 106.472 231.205 105.937C229.371 105.343 227.426 105.172 225.516 105.437C223.484 105.722 221.544 106.471 219.847 107.625C218.082 108.84 216.641 110.467 215.647 112.365C214.653 114.264 214.138 116.376 214.144 118.519C214.161 120.548 214.64 122.546 215.545 124.362C216.401 126.072 217.627 127.569 219.133 128.745C220.517 129.841 222.104 130.652 223.802 131.134C225.339 131.566 226.941 131.713 228.531 131.567C229.928 131.432 231.296 131.081 232.586 130.527C234.546 129.653 236.267 128.318 237.602 126.637C237.607 126.631 237.614 126.627 237.621 126.624C237.629 126.62 237.637 126.619 237.645 126.619C237.653 126.619 237.661 126.62 237.669 126.624C237.676 126.627 237.683 126.631 237.688 126.637C237.695 126.648 237.698 126.661 237.698 126.674C237.698 126.687 237.695 126.7 237.688 126.711L237.615 126.624L240.283 125.924L240.99 125.743C241.075 125.719 241.162 125.703 241.25 125.697Z" fill="#263238"/>
<path d="M222.695 120.24C223.498 120.24 224.149 119.589 224.149 118.785C224.149 117.982 223.498 117.331 222.695 117.331C221.892 117.331 221.241 117.982 221.241 118.785C221.241 119.589 221.892 120.24 222.695 120.24Z" fill="#263238"/>
<path d="M229.044 118.785C229.044 119.073 228.959 119.354 228.799 119.593C228.64 119.833 228.413 120.019 228.147 120.129C227.881 120.239 227.589 120.268 227.307 120.212C227.025 120.156 226.766 120.017 226.562 119.814C226.359 119.61 226.22 119.351 226.164 119.069C226.108 118.787 226.137 118.495 226.247 118.229C226.357 117.963 226.544 117.736 226.783 117.576C227.022 117.416 227.303 117.331 227.59 117.331C227.976 117.331 228.346 117.484 228.619 117.757C228.891 118.03 229.044 118.4 229.044 118.785Z" fill="#263238"/>
<path d="M232.359 120.24C233.162 120.24 233.813 119.589 233.813 118.785C233.813 117.982 233.162 117.331 232.359 117.331C231.556 117.331 230.905 117.982 230.905 118.785C230.905 119.589 231.556 120.24 232.359 120.24Z" fill="#263238"/>
<path d="M64.7295 98.2785L65.3965 94.5627C63.8417 91.8286 63.3653 88.6117 64.0611 85.5442C64.7569 82.4767 66.5744 79.7804 69.1566 77.985C71.7388 76.1897 74.899 75.4251 78.0161 75.8416C81.1332 76.258 83.9819 77.8254 86.0024 80.2357C88.023 82.646 89.0692 85.725 88.9357 88.8676C88.8021 92.0102 87.4983 94.9892 85.2805 97.2193C83.0627 99.4494 80.0913 100.769 76.9501 100.92C73.8088 101.07 70.725 100.04 68.3045 98.0317L64.7295 98.2785Z" fill="white"/>
<path d="M64.7295 98.2785H64.9496H65.6166L68.2845 98.1317C68.298 98.1286 68.31 98.121 68.3185 98.11C68.327 98.0991 68.3315 98.0855 68.3312 98.0717L68.2511 98.1451C70.3508 99.9182 72.9763 100.95 75.7212 101.08C76.0614 101.08 76.3882 101.08 76.755 101.08C76.9327 101.09 77.1109 101.09 77.2886 101.08L77.8288 101.02C79.5941 100.819 81.2974 100.25 82.8282 99.3477C84.359 98.4458 85.6831 97.2321 86.7145 95.7852C87.746 94.3383 88.4618 92.6907 88.8154 90.9493C89.169 89.2079 89.1526 87.4115 88.7671 85.6768C88.5461 84.6734 88.208 83.6995 87.76 82.7749C87.2896 81.8384 86.7073 80.9626 86.0259 80.1665C85.3549 79.3329 84.5844 78.5846 83.7315 77.9384C82.9034 77.3507 82.0077 76.8646 81.0636 76.4907C79.2402 75.7516 77.2683 75.4522 75.3077 75.6168C72.0612 75.8821 69.0404 77.3836 66.8685 79.8116C64.6966 82.2397 63.5394 85.4089 63.6357 88.6655C63.6982 90.7474 64.2781 92.781 65.3231 94.5827V94.5493C65.1297 95.7568 64.983 96.6841 64.8763 97.3312L64.7695 98.0383C64.7636 98.116 64.7636 98.1941 64.7695 98.2718C64.7695 98.2718 64.7695 98.1851 64.8229 98.0183C64.8763 97.8515 64.8963 97.6114 64.9563 97.3045C65.0697 96.6708 65.2364 95.7501 65.4565 94.5694C65.4596 94.5562 65.4596 94.5425 65.4565 94.5293C64.4205 92.6949 63.863 90.6292 63.8353 88.5226C63.8077 86.4159 64.3107 84.3362 65.2982 82.4752C66.2856 80.6143 67.7256 79.0319 69.4854 77.8741C71.2453 76.7163 73.2682 76.0203 75.3677 75.8503C77.2905 75.693 79.2234 75.9901 81.0103 76.7176C82.8922 77.4579 84.559 78.6573 85.8591 80.2065C86.5256 80.9852 87.0965 81.8407 87.5599 82.7549C88.0002 83.6598 88.3316 84.6137 88.547 85.5968C88.9727 87.4949 88.9499 89.4662 88.4804 91.3539C87.858 93.8033 86.5085 96.0068 84.6095 97.674C82.7105 99.3411 80.3511 100.394 77.8422 100.693L77.3086 100.753C77.1352 100.753 76.9618 100.753 76.7884 100.753C76.4349 100.753 76.1214 100.753 75.7612 100.753C75.1156 100.729 74.4731 100.651 73.8403 100.52C71.8268 100.111 69.943 99.2178 68.3512 97.9182C68.3468 97.9127 68.3412 97.9082 68.3349 97.9051C68.3285 97.902 68.3216 97.9004 68.3145 97.9004C68.3074 97.9004 68.3005 97.902 68.2941 97.9051C68.2877 97.9082 68.2822 97.9127 68.2778 97.9182C68.2712 97.9281 68.2677 97.9397 68.2677 97.9516C68.2677 97.9635 68.2712 97.9751 68.2778 97.985V97.9049L65.6633 98.1117L64.9963 98.1717L64.7295 98.2785Z" fill="#263238"/>
<path d="M70.8723 89.1858L72.2663 87.7915L74.9475 90.1798L80.2232 85.1097L81.5172 86.4973L74.7541 92.8682L70.8723 89.1858Z" fill="#966AF2"/>
<path d="M294.508 234.655C294.508 234.495 294.508 234.342 294.541 234.182C294.681 231.186 293.461 228.305 292.287 225.509C289.139 218.091 286.097 210.219 286.951 202.214C288.125 191.627 295.908 182.868 298.683 172.634C298.845 172.05 299.193 171.535 299.675 171.168C300.156 170.801 300.745 170.601 301.351 170.6C301.788 170.597 302.219 170.697 302.61 170.892C303.001 171.087 303.34 171.372 303.6 171.723C303.86 172.074 304.033 172.482 304.106 172.912C304.179 173.343 304.149 173.785 304.019 174.202C300.924 183.775 293.861 192.174 292.754 202.221C291.866 210.226 294.914 218.098 298.056 225.516C299.23 228.285 300.45 231.166 300.317 234.188C300.184 237.21 298.249 240.346 295.281 240.859H251.095C250.728 240.861 250.365 240.791 250.026 240.652C249.687 240.513 249.379 240.308 249.119 240.049C248.86 239.791 248.653 239.484 248.513 239.145C248.372 238.807 248.3 238.444 248.3 238.078V237.477C248.301 237.111 248.374 236.749 248.515 236.411C248.656 236.073 248.862 235.766 249.121 235.507C249.381 235.249 249.689 235.044 250.027 234.905C250.366 234.766 250.728 234.695 251.095 234.695L294.508 234.655Z" fill="#455A64"/>
<path d="M303.398 300.979H239.209C238.759 300.974 238.317 300.862 237.919 300.652C237.521 300.442 237.179 300.141 236.921 299.772C236.604 299.328 236.397 298.816 236.316 298.277C236.235 297.738 236.282 297.187 236.455 296.67L254.73 240.666L255.677 240.98L237.408 297.017C237.286 297.383 237.251 297.774 237.308 298.157C237.365 298.539 237.511 298.903 237.735 299.218C237.901 299.457 238.121 299.654 238.377 299.792C238.633 299.93 238.918 300.005 239.209 300.012H303.398C303.684 300.009 303.964 299.939 304.217 299.807C304.47 299.675 304.688 299.484 304.852 299.251C305.075 298.949 305.226 298.599 305.292 298.228C305.358 297.858 305.337 297.478 305.233 297.117L289.559 240.96L290.526 240.686L306.233 296.81C306.379 297.321 306.405 297.859 306.309 298.382C306.213 298.905 305.997 299.399 305.679 299.825C305.417 300.184 305.074 300.476 304.677 300.676C304.281 300.877 303.843 300.981 303.398 300.979Z" fill="#E0E0E0"/>
<path d="M213.371 199.352C213.371 199.352 215.712 193.668 218.039 192.467C219.722 191.636 221.48 190.966 223.289 190.466H233.533L233.633 197.137C233.165 197.576 232.609 197.91 232.002 198.118C231.395 198.326 230.751 198.404 230.112 198.345C228.111 198.064 222.995 196.81 222.995 196.81L220.487 196.944L218.193 199.906C218.193 199.906 216.312 200.473 216.979 198.698L217.933 196.143C217.933 196.143 215.712 199.592 214.858 199.752C214.596 199.793 214.328 199.779 214.072 199.71C213.816 199.641 213.577 199.519 213.371 199.352Z" fill="#6F4439"/>
<path d="M255.863 177.905L247.68 189.672L233.533 190.473L233.34 196.93L244.011 199.032C246.737 199.568 249.552 199.435 252.214 198.643C254.877 197.852 257.308 196.427 259.298 194.489L260.879 180.253L255.863 177.905Z" fill="#AE7461"/>
<path d="M249.54 275.516L259.045 284.822C259.045 284.822 252.162 298.084 253.742 299.972L273.591 281.293L259.405 266.163L249.54 275.516Z" fill="#263238"/>
<path d="M264.394 278.231C264.626 278.104 264.898 278.069 265.155 278.133C265.413 278.197 265.636 278.356 265.781 278.578C265.9 278.818 265.924 279.094 265.849 279.351C265.773 279.608 265.604 279.827 265.374 279.965C265.128 280.101 264.839 280.138 264.567 280.069C264.294 279.999 264.058 279.829 263.907 279.592C263.811 279.326 263.818 279.034 263.926 278.774C264.035 278.513 264.238 278.303 264.494 278.184" fill="#E0E0E0"/>
<path d="M273.591 281.293L272.097 279.825L253.622 298.284C253.622 298.284 253.082 299.478 253.742 299.972L273.591 281.293Z" fill="#455A64"/>
<path d="M258.618 285.029C258.705 285.115 259.232 284.702 259.985 284.548C260.739 284.395 261.359 284.548 261.413 284.415C261.466 284.282 260.826 283.901 259.912 284.108C258.998 284.315 258.518 284.962 258.618 285.029Z" fill="white"/>
<path d="M257.304 287.797C257.364 287.911 257.931 287.67 258.638 287.744C259.345 287.817 259.818 288.144 259.912 288.044C260.005 287.944 259.578 287.377 258.711 287.297C257.844 287.217 257.224 287.71 257.304 287.797Z" fill="white"/>
<path d="M258.351 291.259C258.458 291.199 258.158 290.592 257.431 290.345C256.704 290.099 256.097 290.345 256.097 290.426C256.097 290.506 256.664 290.546 257.257 290.772C257.851 290.999 258.244 291.346 258.351 291.259Z" fill="white"/>
<path d="M256.697 282.654C256.817 282.7 257.144 282.153 257.724 281.673C258.304 281.193 258.885 280.953 258.865 280.826C258.845 280.699 258.118 280.766 257.444 281.34C256.77 281.913 256.584 282.627 256.697 282.654Z" fill="white"/>
<path d="M250.634 209.225C248.894 209.225 206.541 221.567 201.945 225.736C197.35 229.906 193.942 281.533 193.942 281.533L211.703 287.624C211.703 287.624 215.445 262.414 217.706 254.268C218.803 250.192 219.273 245.972 219.1 241.753L254.263 226.41L250.634 209.225Z" fill="#263238"/>
<path d="M251.701 211.954C250.914 212.301 220.14 225.443 217.246 234.248C214.891 241.427 217.626 247.744 220.921 252.681C224.636 258.251 251.895 283.134 251.895 283.134L267.282 272.127L240.903 244.882C240.903 244.882 254.743 236.343 255.216 236.343C255.69 236.343 270.076 235.389 274.639 234.876C278.901 234.389 281.228 228.284 281.228 228.284L285.023 210.773L256.484 204.182L251.701 211.954Z" fill="#263238"/>
<path d="M251.701 211.954L252.002 211.44L252.909 209.946L256.444 204.155H256.477L285.023 210.699H285.117V210.793C283.976 216.056 282.702 221.967 281.335 228.304C280.686 229.915 279.768 231.404 278.62 232.707C278.024 233.375 277.318 233.937 276.533 234.368C276.337 234.487 276.129 234.583 275.912 234.655C275.697 234.746 275.474 234.815 275.246 234.862C275.025 234.909 274.799 234.962 274.579 234.989L273.912 235.062C270.31 235.422 266.575 235.683 262.746 235.963L256.917 236.363L255.436 236.45H255.243C255.203 236.45 255.21 236.45 255.19 236.45L255.116 236.483L254.79 236.643L254.123 237.004C253.255 237.497 252.388 238.011 251.521 238.525C248.06 240.599 244.538 242.761 240.95 244.969V244.769C247.54 251.58 254.489 258.725 261.593 266.063L267.375 272.033L267.482 272.14L267.355 272.227C262.113 275.98 256.984 279.647 251.968 283.227L251.888 283.287L251.808 283.221C246.295 278.177 241.021 273.247 235.988 268.431C233.48 266.029 231.039 263.661 228.691 261.313C226.343 258.965 224.062 256.643 222.021 254.255C221.754 253.968 221.534 253.635 221.288 253.328C221.041 253.021 220.807 252.701 220.621 252.367C220.2 251.7 219.794 251.033 219.42 250.366C218.67 249.049 218.03 247.672 217.506 246.25C216.999 244.869 216.643 243.438 216.445 241.98C216.275 240.571 216.275 239.147 216.445 237.737C216.583 236.366 216.906 235.019 217.406 233.735C217.971 232.54 218.738 231.452 219.673 230.519C221.411 228.784 223.312 227.22 225.349 225.849C228.814 223.495 232.41 221.341 236.121 219.399C239.362 217.664 242.197 216.276 244.518 215.176C246.839 214.075 248.653 213.261 249.854 212.721L251.255 212.114L251.735 211.92C251.735 211.92 251.581 212 251.268 212.14L249.874 212.761C248.653 213.315 246.846 214.142 244.538 215.256C242.23 216.37 239.396 217.771 236.161 219.512C232.463 221.466 228.878 223.627 225.423 225.983C223.397 227.353 221.509 228.917 219.787 230.653C218.866 231.569 218.113 232.639 217.559 233.815C217.076 235.078 216.76 236.399 216.619 237.744C216.463 239.139 216.474 240.548 216.652 241.94C216.85 243.382 217.206 244.798 217.713 246.163C218.231 247.575 218.867 248.94 219.613 250.246C219.987 250.913 220.387 251.58 220.814 252.247C221.017 252.576 221.239 252.892 221.481 253.194C221.721 253.501 221.935 253.821 222.208 254.115C224.249 256.503 226.537 258.785 228.878 261.153C231.219 263.521 233.667 265.856 236.181 268.258C241.206 273.056 246.479 277.984 252.002 283.041H251.842L267.229 272.04V272.234L261.446 266.23L240.856 244.955L240.743 244.842L240.877 244.755C244.465 242.532 247.991 240.386 251.455 238.318C252.328 237.804 253.189 237.29 254.063 236.797L254.729 236.436C254.843 236.376 254.95 236.316 255.07 236.263L255.17 236.223H255.296H255.476L256.957 236.136L262.786 235.743C266.615 235.463 270.343 235.202 273.938 234.849C274.824 234.818 275.692 234.59 276.479 234.182C277.232 233.76 277.909 233.214 278.48 232.567C279.608 231.29 280.51 229.831 281.148 228.251L284.963 210.746L285.03 210.853L256.497 204.222H256.55L252.969 209.999L252.048 211.473C251.815 211.794 251.701 211.954 251.701 211.954Z" fill="#455A64"/>
<path d="M254.503 127.751C253.804 127.888 253.079 127.763 252.468 127.398C251.856 127.033 251.401 126.456 251.189 125.776C250.978 125.096 251.024 124.362 251.321 123.714C251.617 123.067 252.142 122.552 252.795 122.268C252.317 121.856 251.981 121.305 251.834 120.691C251.687 120.078 251.737 119.433 251.977 118.85C252.217 118.267 252.635 117.774 253.171 117.441C253.707 117.109 254.334 116.953 254.963 116.998C254.934 116.377 255.067 115.759 255.349 115.205C255.63 114.65 256.05 114.179 256.568 113.835C257.086 113.492 257.684 113.289 258.304 113.245C258.924 113.202 259.545 113.32 260.105 113.589C260.754 112.962 261.593 112.57 262.489 112.475C263.386 112.379 264.288 112.586 265.054 113.062C265.648 112.894 266.279 112.923 266.855 113.143C267.431 113.363 267.921 113.763 268.252 114.283C268.583 114.804 268.737 115.417 268.692 116.032C268.647 116.647 268.405 117.231 268.002 117.698" fill="#263238"/>
<path d="M265.921 115.843L265.288 115.897C262.223 116.168 259.372 117.584 257.303 119.862C255.234 122.14 254.099 125.114 254.123 128.192C254.169 134.129 254.296 140.687 254.609 143.849C255.276 150.386 261.906 150.827 261.906 150.827L262.053 158.738L277.893 156.844L276.78 128.192C276.766 121.34 272.764 115.637 265.921 115.843Z" fill="#AE7461"/>
<path d="M261.899 150.827C264.927 150.551 267.813 149.414 270.217 147.551C270.217 147.551 268.529 152.561 261.946 152.548L261.899 150.827Z" fill="#6F4439"/>
<path d="M256.484 134.262C256.502 134.507 256.616 134.735 256.801 134.897C256.985 135.059 257.226 135.142 257.471 135.13C257.59 135.128 257.708 135.102 257.817 135.055C257.927 135.007 258.026 134.938 258.108 134.852C258.191 134.765 258.255 134.664 258.298 134.552C258.341 134.441 258.361 134.322 258.358 134.202C258.339 133.957 258.225 133.73 258.041 133.568C257.856 133.406 257.616 133.322 257.371 133.335C257.251 133.337 257.133 133.362 257.024 133.41C256.914 133.458 256.816 133.527 256.733 133.613C256.651 133.699 256.586 133.801 256.543 133.913C256.5 134.024 256.48 134.143 256.484 134.262Z" fill="#263238"/>
<path d="M255.81 131.307C255.937 131.414 256.597 130.827 257.604 130.747C258.611 130.667 259.392 131.094 259.492 130.96C259.592 130.827 259.405 130.693 259.065 130.487C258.601 130.224 258.068 130.11 257.537 130.16C257.015 130.206 256.52 130.416 256.123 130.76C255.837 130.994 255.75 131.22 255.81 131.307Z" fill="#263238"/>
<path d="M265.548 133.742C265.568 133.986 265.682 134.213 265.867 134.375C266.051 134.536 266.29 134.62 266.535 134.609C266.654 134.607 266.772 134.582 266.882 134.534C266.991 134.487 267.09 134.418 267.173 134.331C267.255 134.245 267.32 134.143 267.362 134.032C267.405 133.92 267.426 133.801 267.422 133.682C267.405 133.438 267.292 133.21 267.109 133.048C266.926 132.885 266.686 132.802 266.442 132.815C266.322 132.815 266.203 132.84 266.093 132.888C265.982 132.935 265.883 133.004 265.8 133.09C265.716 133.177 265.651 133.279 265.608 133.391C265.565 133.503 265.544 133.622 265.548 133.742Z" fill="#263238"/>
<path d="M265.715 130.587C265.841 130.7 266.508 130.113 267.509 130.026C268.509 129.939 269.296 130.373 269.396 130.24C269.496 130.106 269.309 129.973 268.969 129.766C268.504 129.507 267.972 129.393 267.442 129.439C266.919 129.485 266.424 129.695 266.028 130.04C265.741 130.306 265.654 130.533 265.715 130.587Z" fill="#263238"/>
<path d="M262.726 138.372C262.182 138.249 261.624 138.197 261.066 138.218C260.806 138.218 260.559 138.185 260.499 138.011C260.456 137.749 260.494 137.479 260.606 137.238L261.192 135.236C261.999 132.354 262.526 129.999 262.446 129.966C262.366 129.933 261.579 132.241 260.772 135.123C260.579 135.83 260.392 136.504 260.219 137.124C260.082 137.448 260.065 137.81 260.172 138.145C260.218 138.231 260.282 138.307 260.361 138.366C260.439 138.424 260.53 138.465 260.626 138.485C260.772 138.504 260.92 138.504 261.066 138.485C261.622 138.514 262.179 138.476 262.726 138.372Z" fill="#263238"/>
<path d="M264.501 126.791C264.654 127.038 265.494 126.684 266.555 126.551C267.615 126.417 268.522 126.551 268.596 126.25C268.596 126.117 268.416 125.903 268.016 125.737C267.502 125.53 266.943 125.463 266.395 125.543C265.851 125.607 265.335 125.817 264.901 126.15C264.567 126.417 264.434 126.677 264.501 126.791Z" fill="#263238"/>
<path d="M255.396 127.124C255.63 127.338 256.437 127.024 257.437 126.924C258.438 126.824 259.292 126.924 259.438 126.664C259.512 126.537 259.358 126.317 258.971 126.137C258.438 125.91 257.852 125.831 257.277 125.91C256.705 125.968 256.157 126.175 255.69 126.511C255.39 126.777 255.29 127.024 255.396 127.124Z" fill="#263238"/>
<path d="M254.483 125.136C254.483 125.136 255.817 120.88 257.744 119.753C260.032 118.378 261.292 120.913 263.52 120.08C265.748 119.246 267.929 117.925 270.417 119.479C273.138 121.187 272.064 122.648 272.478 125.537C274.158 137.258 276.599 140.4 276.726 134.796C276.726 134.182 278.38 133.548 278.4 130.96C278.434 127.625 278.2 123.549 277.253 121.247C276.446 119.312 275.192 118.038 273.025 116.697C269.596 114.589 265.174 114.929 262.206 115.497C259.238 116.064 253.756 120.026 254.483 125.136Z" fill="#263238"/>
<path d="M276.293 134.642C276.278 134.401 276.313 134.159 276.395 133.932C276.477 133.705 276.605 133.497 276.771 133.321C276.936 133.144 277.136 133.004 277.358 132.908C277.579 132.812 277.818 132.762 278.06 132.761C279.287 132.761 280.728 133.342 280.848 135.87C281.102 140.36 276.546 139.686 276.533 139.559C276.519 139.432 276.379 136.537 276.293 134.642Z" fill="#AE7461"/>
<path d="M277.413 137.831C277.413 137.831 277.493 137.878 277.627 137.931C277.815 138.008 278.025 138.008 278.214 137.931C278.493 137.731 278.715 137.46 278.856 137.146C278.996 136.832 279.051 136.486 279.014 136.144C279.003 135.758 278.905 135.379 278.727 135.036C278.677 134.899 278.594 134.776 278.486 134.677C278.378 134.578 278.248 134.507 278.107 134.469C278.016 134.451 277.922 134.466 277.84 134.509C277.759 134.553 277.695 134.624 277.66 134.709C277.607 134.843 277.66 134.929 277.613 134.936C277.567 134.943 277.513 134.869 277.54 134.683C277.558 134.569 277.615 134.466 277.7 134.389C277.819 134.29 277.972 134.24 278.127 134.249C278.314 134.278 278.491 134.354 278.641 134.471C278.79 134.588 278.907 134.741 278.981 134.916C279.197 135.292 279.316 135.716 279.327 136.15C279.376 136.549 279.303 136.953 279.119 137.31C278.934 137.667 278.647 137.96 278.294 138.152C278.175 138.194 278.049 138.208 277.924 138.195C277.799 138.181 277.679 138.139 277.573 138.071C277.427 137.938 277.4 137.838 277.413 137.831Z" fill="#6F4439"/>
<path d="M275.439 125.97C274.929 126.464 274.303 126.822 273.618 127.011C273.275 127.095 272.913 127.053 272.599 126.891C272.285 126.729 272.041 126.459 271.911 126.13C271.824 125.823 271.871 125.463 271.644 125.23C271.417 124.996 270.93 125.096 270.563 125.17C269.269 125.423 267.622 124.122 267.182 122.881C267.032 123.138 266.79 123.328 266.506 123.414C266.221 123.499 265.914 123.474 265.648 123.342C265.215 123.122 264.823 122.831 264.487 122.481C264.294 122.248 264.046 122.065 263.766 121.949C263.486 121.833 263.182 121.786 262.88 121.814C262.574 121.948 262.254 122.049 261.926 122.114C261.333 122.114 260.986 121.447 260.846 120.873C260.706 120.3 260.579 119.626 260.052 119.352C259.521 119.197 258.952 119.232 258.445 119.453C257.911 119.579 257.204 119.513 257.017 118.992C256.949 118.711 256.994 118.413 257.144 118.165C257.461 117.59 257.963 117.139 258.568 116.885C259.173 116.63 259.846 116.588 260.479 116.764C260.633 115.999 261.01 115.297 261.563 114.747C262.116 114.196 262.82 113.822 263.585 113.672C264.351 113.522 265.144 113.603 265.864 113.904C266.583 114.205 267.198 114.713 267.629 115.363C268.066 114.89 268.611 114.529 269.218 114.311C269.825 114.094 270.475 114.026 271.113 114.114C271.752 114.201 272.36 114.442 272.885 114.815C273.411 115.188 273.838 115.683 274.132 116.257C274.667 116.065 275.247 116.035 275.8 116.169C276.352 116.304 276.853 116.599 277.239 117.016C277.626 117.433 277.881 117.955 277.974 118.516C278.067 119.078 277.992 119.654 277.76 120.173C278.195 120.342 278.58 120.619 278.878 120.979C279.176 121.339 279.376 121.768 279.461 122.228C279.561 123.148 278.74 124.156 277.827 123.989C278.04 124.338 278.112 124.755 278.028 125.155C277.945 125.556 277.712 125.909 277.377 126.144C277.042 126.378 276.631 126.477 276.226 126.418C275.821 126.36 275.454 126.15 275.199 125.83" fill="#263238"/>
<path d="M260.252 118.165C260.249 118.192 260.249 118.218 260.252 118.245C260.262 118.326 260.278 118.406 260.299 118.485C260.389 118.782 260.524 119.063 260.699 119.319C260.982 119.721 261.354 120.052 261.786 120.286C262.356 120.611 263.017 120.738 263.667 120.647L263.58 120.56C263.531 120.768 263.523 120.983 263.557 121.194C263.592 121.404 263.667 121.606 263.78 121.787C264.016 122.169 264.306 122.515 264.641 122.815C264.806 122.991 264.989 123.15 265.188 123.288C265.413 123.411 265.665 123.48 265.921 123.488C266.191 123.501 266.459 123.447 266.702 123.331C266.946 123.214 267.156 123.039 267.315 122.821L267.149 122.788C267.249 123.249 267.445 123.684 267.726 124.063C268.007 124.443 268.364 124.759 268.776 124.989C269.231 125.263 269.761 125.387 270.29 125.343C270.783 125.273 271.261 125.122 271.704 124.896L271.584 124.849C271.86 125.373 272.267 125.816 272.764 126.137C272.991 126.302 273.253 126.413 273.529 126.463C273.805 126.513 274.088 126.499 274.358 126.424C274.82 126.282 275.23 126.009 275.537 125.636C275.844 125.264 276.035 124.809 276.086 124.329L275.993 124.382C276.484 124.593 277.033 124.626 277.547 124.476C277.932 124.369 278.286 124.172 278.58 123.902C278.766 123.733 278.919 123.532 279.034 123.308C279.069 123.23 279.1 123.15 279.127 123.068C278.975 123.362 278.772 123.626 278.527 123.849C278.235 124.097 277.891 124.275 277.52 124.369C277.031 124.501 276.511 124.464 276.046 124.262L275.959 124.222V124.316C275.904 124.764 275.719 125.187 275.428 125.533C275.137 125.879 274.751 126.133 274.318 126.264C274.072 126.329 273.813 126.338 273.563 126.289C273.312 126.241 273.076 126.136 272.871 125.983C272.403 125.676 272.02 125.257 271.757 124.763L271.717 124.683L271.631 124.723C271.212 124.936 270.761 125.08 270.297 125.15C269.806 125.192 269.315 125.075 268.896 124.816C268.51 124.597 268.173 124.3 267.908 123.944C267.643 123.588 267.455 123.181 267.355 122.748L267.309 122.541L267.189 122.715C267.045 122.903 266.857 123.053 266.642 123.152C266.427 123.251 266.191 123.295 265.955 123.282C265.721 123.283 265.491 123.223 265.288 123.108C265.098 122.984 264.925 122.836 264.774 122.668C264.444 122.383 264.158 122.05 263.927 121.681C263.824 121.518 263.753 121.336 263.72 121.146C263.687 120.956 263.692 120.761 263.734 120.573V120.466H263.62C263.004 120.556 262.375 120.446 261.826 120.153C261.403 119.928 261.035 119.614 260.746 119.232C260.523 118.906 260.356 118.546 260.252 118.165Z" fill="#455A64"/>
<path d="M262.813 141.594C262.813 141.42 263.94 141.554 264.854 140.693C265.768 139.833 265.788 138.618 265.941 138.632C266.095 138.645 266.128 138.919 266.081 139.426C266.013 140.086 265.713 140.701 265.234 141.16C264.773 141.591 264.165 141.829 263.534 141.827C263.06 141.827 262.793 141.667 262.813 141.594Z" fill="#263238"/>
<path d="M197.984 274.889L195.916 289.252C195.916 289.252 179.822 291.74 179.168 294.348L208.395 299.805L212.584 277.577L197.984 274.889Z" fill="#263238"/>
<path d="M205.167 289.738C205.429 289.862 205.634 290.079 205.744 290.347C205.854 290.615 205.86 290.914 205.761 291.186C205.623 291.444 205.395 291.642 205.12 291.741C204.845 291.839 204.543 291.832 204.273 291.72C203.996 291.589 203.778 291.358 203.663 291.074C203.548 290.789 203.545 290.472 203.653 290.185C203.826 289.93 204.088 289.748 204.387 289.676C204.687 289.603 205.003 289.644 205.274 289.792" fill="#E0E0E0"/>
<path d="M208.395 299.805L208.722 297.55L180.582 293.161C180.582 293.161 179.182 293.454 179.168 294.348L208.395 299.805Z" fill="#455A64"/>
<path d="M195.462 289.025C195.462 289.158 196.129 289.352 196.796 289.919C197.463 290.486 197.69 291.119 197.83 291.093C197.97 291.066 197.904 290.245 197.163 289.572C196.423 288.898 195.456 288.891 195.462 289.025Z" fill="white"/>
<path d="M192.181 289.652C192.121 289.772 192.701 290.119 193.081 290.786C193.462 291.453 193.488 292.073 193.635 292.12C193.782 292.167 194.008 291.4 193.515 290.579C193.021 289.758 192.181 289.525 192.181 289.652Z" fill="white"/>
<path d="M189.807 292.801C189.927 292.854 190.253 292.213 190.02 291.406C189.787 290.599 189.173 290.179 189.093 290.279C189.013 290.379 189.353 290.853 189.533 291.52C189.713 292.187 189.666 292.747 189.807 292.801Z" fill="white"/>
<path d="M196.316 285.809C196.356 285.943 197.043 285.876 197.844 286.083C198.644 286.29 199.224 286.643 199.318 286.536C199.411 286.43 198.897 285.869 197.984 285.616C197.07 285.362 196.269 285.689 196.316 285.809Z" fill="white"/>
<path d="M261.333 159.759L261.933 157.044L277.893 149.112L279.287 151.32C279.287 151.32 285.257 156.183 287.544 160.4C289.832 164.616 287.124 199.172 286.737 204.215C285.97 214.375 282.175 227.677 282.175 227.677C282.175 227.677 277.053 224.108 261.986 217.924C246.919 211.74 246.112 208.932 246.112 208.932L254.99 197.671L261.333 159.759Z" fill="#966AF2"/>
<path d="M261.546 160.713C261.459 161.213 254.209 178.538 254.209 178.538C254.209 178.538 257.958 180.633 258.485 180.733C259.011 180.833 261.546 160.713 261.546 160.713Z" fill="#966AF2"/>
<path d="M260.879 163.555C260.952 163.555 260.312 167.965 259.452 173.388C258.591 178.812 257.838 183.188 257.764 183.181C257.691 183.175 258.331 178.765 259.192 173.341C260.052 167.918 260.779 163.542 260.879 163.555Z" fill="#263238"/>
<path d="M210.189 198.218C210.189 198.218 214.491 191.874 217.052 190.76C218.917 190.005 220.848 189.429 222.822 189.039L233.633 190.486L233.44 196.944C232.906 197.379 232.285 197.695 231.619 197.873C230.954 198.05 230.258 198.083 229.578 197.971C227.424 197.518 222.081 195.796 222.081 195.796L219.38 195.756L216.712 198.758C216.712 198.758 214.665 199.225 215.505 197.377C216.345 195.53 216.719 194.709 216.719 194.709C216.719 194.709 214.051 198.238 213.157 198.345C212.166 198.381 211.174 198.339 210.189 198.218Z" fill="#AE7461"/>
<path d="M266.708 172.801L259.212 190.226L233.553 190.473L233.36 196.93C233.36 196.93 258.104 205.656 264.707 203.962C271.31 202.267 282.222 178.965 282.222 178.965L266.708 172.801Z" fill="#AE7461"/>
<path d="M272.778 158.105C272.111 158.738 269.756 161.44 267.282 167.384C264.807 173.328 261.333 180.233 261.333 180.233L279.027 187.284C279.027 187.284 283.029 178.005 284.93 173.875C286.357 170.733 287.351 164.536 286.057 161.554C284.763 158.572 278.934 152.514 272.778 158.105Z" fill="#966AF2"/>
<path d="M272.778 158.105C272.828 158.051 272.882 157.999 272.938 157.951C273.051 157.851 273.211 157.698 273.438 157.518C274.099 156.985 274.833 156.551 275.619 156.23C276.88 155.727 278.266 155.625 279.588 155.937C281.325 156.393 282.897 157.332 284.123 158.645C284.853 159.386 285.475 160.226 285.97 161.14C286.448 162.168 286.709 163.283 286.737 164.416C286.822 166.895 286.512 169.372 285.817 171.754C285.422 173.033 284.934 174.282 284.356 175.49C283.823 176.721 283.263 178.005 282.676 179.339C281.537 181.932 280.361 184.6 279.147 187.344L279.094 187.457L278.974 187.411L278.72 187.311L261.293 180.339L261.172 180.293L261.226 180.179C262.88 176.844 264.347 173.782 265.594 171.013C266.842 168.245 267.815 165.763 268.856 163.815C269.629 162.289 270.53 160.832 271.551 159.459C271.823 159.099 272.115 158.754 272.424 158.425C272.534 158.312 272.65 158.205 272.771 158.105L272.691 158.191L272.458 158.452C272.251 158.678 271.964 159.032 271.611 159.506C270.602 160.889 269.71 162.352 268.943 163.882C267.922 165.823 266.988 168.318 265.735 171.093C264.481 173.868 263.067 176.964 261.399 180.286L261.339 180.119L278.774 187.057L279.034 187.164L278.867 187.231C280.074 184.482 281.262 181.794 282.402 179.225C282.976 177.922 283.538 176.65 284.09 175.409C284.665 174.212 285.153 172.975 285.55 171.707C286.241 169.352 286.556 166.902 286.484 164.449C286.464 163.344 286.214 162.256 285.75 161.253C285.267 160.353 284.661 159.525 283.95 158.792C282.752 157.502 281.214 156.577 279.514 156.123C278.218 155.81 276.858 155.896 275.612 156.37C274.833 156.682 274.1 157.097 273.431 157.604C273.198 157.778 273.031 157.925 272.918 158.018L272.778 158.105Z" fill="#263238"/>
<path d="M221.528 192.301C220.584 192.363 219.659 192.589 218.793 192.968C217.965 193.431 217.226 194.039 216.612 194.762C216.7 194.485 216.85 194.231 217.052 194.022C217.5 193.488 218.052 193.05 218.673 192.734C219.296 192.418 219.977 192.234 220.674 192.194C220.963 192.167 221.254 192.204 221.528 192.301Z" fill="#6F4439"/>
<path d="M263.193 180.973C263.182 181.036 263.162 181.096 263.133 181.153L262.94 181.66C262.746 182.127 262.48 182.768 262.153 183.568C261.453 185.223 260.479 187.571 259.318 190.273V190.339H259.238L251.448 190.426L238.809 190.513H234.981H233.94C233.821 190.529 233.699 190.529 233.58 190.513H233.94H234.981L238.809 190.433L251.441 190.273L259.238 190.206L259.132 190.279L262.053 183.608L262.893 181.734C262.993 181.534 263.067 181.367 263.127 181.233C263.187 181.1 263.187 180.966 263.193 180.973Z" fill="#6F4439"/>
<path d="M36.1365 204.182H31.1943V300.852H36.1365V204.182Z" fill="#455A64"/>
<path d="M238.896 204.862H233.953V300.866H238.896V204.862Z" fill="#455A64"/>
<path d="M243.785 203.228H18.8553V209.058H243.785V203.228Z" fill="#455A64"/>
<path d="M241.617 209.065C241.617 209.138 215.372 209.192 182.997 209.192C150.622 209.192 124.377 209.138 124.377 209.065C124.377 208.992 150.615 208.932 182.997 208.932C215.378 208.932 241.617 208.992 241.617 209.065Z" fill="#263238"/>
<path d="M176.874 169.105C177.018 169.076 177.167 169.075 177.312 169.104C177.456 169.134 177.593 169.192 177.715 169.275C177.836 169.359 177.94 169.466 178.019 169.59C178.098 169.715 178.151 169.854 178.175 169.999L184.264 202.261H213.858C214.07 202.261 214.273 202.345 214.423 202.495C214.574 202.645 214.658 202.849 214.658 203.061C214.658 203.273 214.574 203.477 214.423 203.627C214.273 203.777 214.07 203.862 213.858 203.862H182.443V203.735H182.296L176.007 170.38C175.98 170.239 175.981 170.094 176.01 169.954C176.039 169.814 176.095 169.681 176.176 169.562C176.256 169.444 176.36 169.343 176.479 169.264C176.599 169.186 176.733 169.132 176.874 169.105Z" fill="#263238"/>
<path d="M28.533 93.829C29.8373 91.8053 31.5795 90.1006 33.631 88.8409C35.6824 87.5811 37.9906 86.7985 40.3851 86.5509C43.1931 86.2507 44.3869 86.731 46.4879 87.0979C48.5504 87.4131 50.4379 88.4396 51.8237 89.9998C53.5286 91.8507 54.7398 94.1014 55.3453 96.5441C55.8195 98.8917 55.8984 101.302 55.5787 103.676C55.0429 106.732 54.0087 109.68 52.5173 112.401L48.2754 113.295C44.6937 113.742 41.0654 114.182 37.4971 113.675C33.9288 113.168 30.3539 111.587 28.2062 108.685C25.2249 104.67 25.7184 97.9517 28.533 93.829Z" fill="#263238"/>
<path d="M34.3157 93.2819L42.6795 89.0658L44.9672 89.1258C50.0629 88.6856 54.078 93.9957 54.4782 98.1185C54.9251 102.701 55.2919 108.312 54.865 111.761C54.0047 118.685 48.2554 119.766 48.2554 119.766C48.2554 119.766 49.2158 127.838 49.4492 130.113L35.5696 125.87L32.2347 95.8036C32.2038 95.1992 32.4003 94.6052 32.7855 94.1384C33.1706 93.6717 33.7165 93.3662 34.3157 93.2819Z" fill="#FFBF9D"/>
<path d="M44.527 111.067C44.547 110.713 44.6965 110.378 44.9472 110.126C45.1753 109.893 45.4739 109.741 45.7969 109.694C46.1199 109.647 46.4495 109.707 46.7347 109.866C47.032 110.058 47.2731 110.325 47.4337 110.64C47.5942 110.955 47.6683 111.308 47.6484 111.661C47.517 111.882 47.3404 112.073 47.13 112.221C46.9197 112.37 46.6804 112.472 46.4279 112.521H46.1878C45.7835 112.555 45.3813 112.436 45.0606 112.188C44.893 112.053 44.758 111.883 44.6656 111.688C44.5732 111.494 44.5258 111.282 44.527 111.067Z" fill="#FF9A6C"/>
<path d="M53.1509 104.296C53.1619 104.526 53.0822 104.752 52.9288 104.924C52.7754 105.096 52.5606 105.201 52.3306 105.217C52.2182 105.229 52.1044 105.22 51.9958 105.188C51.8873 105.156 51.7862 105.103 51.6985 105.031C51.6109 104.96 51.5384 104.872 51.4855 104.772C51.4325 104.672 51.4001 104.562 51.3901 104.449C51.3825 104.22 51.4635 103.996 51.6162 103.825C51.7689 103.653 51.9817 103.547 52.2105 103.529C52.3229 103.516 52.4367 103.526 52.5453 103.557C52.6538 103.589 52.7549 103.642 52.8425 103.714C52.9302 103.785 53.0026 103.874 53.0556 103.974C53.1086 104.074 53.141 104.183 53.1509 104.296Z" fill="#263238"/>
<path d="M53.1309 100.54C53.0242 100.653 52.3372 100.186 51.3901 100.22C50.443 100.253 49.756 100.753 49.6493 100.64C49.5426 100.527 49.7027 100.38 49.9961 100.146C50.3999 99.8508 50.8833 99.6834 51.3834 99.6661C51.8786 99.6495 52.3664 99.7896 52.7774 100.066C53.0775 100.28 53.1843 100.487 53.1309 100.54Z" fill="#263238"/>
<path d="M47.7151 108.499C48.211 108.327 48.7263 108.217 49.2492 108.172C49.4893 108.172 49.716 108.078 49.7561 107.912C49.7648 107.661 49.6999 107.412 49.5693 107.198C49.3159 106.615 49.0557 106.008 48.789 105.377C47.7018 102.775 46.9014 100.634 47.0081 100.593C47.1149 100.553 48.082 102.595 49.1691 105.223L49.9161 107.058C50.0795 107.345 50.1362 107.68 50.0762 108.005C50.0443 108.092 49.9929 108.17 49.9257 108.234C49.8586 108.297 49.7777 108.345 49.6894 108.372C49.555 108.413 49.4161 108.438 49.2758 108.445C48.7601 108.531 48.2355 108.549 47.7151 108.499Z" fill="#263238"/>
<path d="M48.262 119.746C45.011 119.915 41.7773 119.173 38.9244 117.605C38.9244 117.605 41.539 122.274 48.4154 121.414L48.262 119.746Z" fill="#FF9A6C"/>
<path d="M53.1376 97.6248C52.9842 97.865 52.2505 97.7315 51.4035 97.8316C50.5564 97.9317 49.8561 98.1785 49.6627 97.9784C49.576 97.8783 49.6627 97.6515 49.9495 97.4047C50.3343 97.1034 50.797 96.9183 51.2834 96.871C51.776 96.8097 52.2756 96.898 52.7174 97.1245C53.0709 97.2846 53.2043 97.5114 53.1376 97.6248Z" fill="#263238"/>
<path d="M43.3931 105.01C43.4086 105.239 43.5125 105.454 43.6829 105.608C43.8534 105.762 44.0771 105.844 44.3069 105.837C44.4198 105.838 44.5318 105.816 44.6362 105.773C44.7406 105.73 44.8354 105.667 44.9149 105.586C44.9945 105.506 45.0572 105.411 45.0994 105.306C45.1416 105.201 45.1624 105.089 45.1606 104.976C45.1468 104.746 45.0434 104.531 44.8726 104.376C44.7017 104.222 44.4771 104.14 44.2469 104.149C44.1339 104.148 44.022 104.17 43.9175 104.213C43.8131 104.256 43.7184 104.319 43.6388 104.4C43.5593 104.48 43.4966 104.575 43.4544 104.68C43.4122 104.785 43.3914 104.897 43.3931 105.01Z" fill="#263238"/>
<path d="M40.2984 101.287C40.4118 101.394 41.0454 100.854 41.9925 100.787C42.9396 100.72 43.6733 101.147 43.7667 101.02C43.86 100.894 43.6866 100.767 43.3665 100.567C42.9367 100.311 42.4374 100.197 41.9391 100.24C41.4476 100.27 40.9794 100.46 40.6052 100.78C40.3251 101.047 40.2384 101.287 40.2984 101.287Z" fill="#263238"/>
<path d="M41.5456 97.9517C41.7457 98.1585 42.466 97.8917 43.3464 97.8383C44.2268 97.785 44.9805 97.8917 45.1406 97.6582C45.214 97.5448 45.0806 97.3313 44.7471 97.1445C44.2857 96.9233 43.7738 96.8289 43.2639 96.8711C42.754 96.9134 42.2645 97.0906 41.8458 97.3847C41.5523 97.6315 41.4456 97.8583 41.5456 97.9517Z" fill="#263238"/>
<path d="M34.4357 107.218C34.4357 106.704 33.7688 105.517 33.2752 105.45C31.9413 105.29 29.4801 105.45 29.5735 108.919C29.7069 113.589 34.3957 112.515 34.4024 112.381C34.409 112.248 34.5024 108.992 34.4357 107.218Z" fill="#FFBF9D"/>
<path d="M33.0551 110.7C33.0551 110.7 32.9751 110.76 32.8417 110.827C32.6444 110.904 32.4253 110.904 32.2281 110.827C31.92 110.641 31.6665 110.378 31.4932 110.062C31.3199 109.747 31.2328 109.392 31.2409 109.032C31.217 108.629 31.2831 108.226 31.4344 107.852C31.4715 107.699 31.5457 107.559 31.6505 107.442C31.7553 107.326 31.8872 107.237 32.0346 107.185C32.1281 107.158 32.2281 107.163 32.3178 107.201C32.4076 107.239 32.4818 107.306 32.5282 107.391C32.5949 107.525 32.5615 107.618 32.5882 107.625C32.6149 107.631 32.6883 107.545 32.6482 107.351C32.6169 107.237 32.549 107.136 32.4548 107.064C32.3893 107.016 32.3148 106.982 32.2357 106.964C32.1566 106.946 32.0746 106.943 31.9946 106.958C31.8032 107 31.6259 107.091 31.4798 107.222C31.3338 107.353 31.2239 107.519 31.1609 107.705C30.9719 108.123 30.8872 108.581 30.9141 109.039C30.9016 109.458 31.0133 109.872 31.2352 110.228C31.4571 110.584 31.7794 110.867 32.1614 111.04C32.2887 111.075 32.4225 111.08 32.5521 111.055C32.6817 111.029 32.8037 110.974 32.9084 110.894C33.0484 110.814 33.0751 110.707 33.0551 110.7Z" fill="#FF9A6C"/>
<path d="M33.0884 105.483L34.3824 106.624C41.8591 101.687 49.4492 88.2986 47.5017 88.8456C45.089 88.1806 42.5478 88.1324 40.1117 88.7055C36.3566 89.6929 29.3001 92.2479 29.8136 96.7108C30.3272 101.174 33.0884 105.483 33.0884 105.483Z" fill="#263238"/>
<path d="M30.8874 86.6976C32.7083 87.765 34.329 90.867 33.5553 92.8417C33.722 93.8751 33.6237 94.9339 33.2696 95.919C32.9154 96.904 32.3171 97.7831 31.5306 98.4737C30.7442 99.1643 29.7953 99.644 28.7729 99.8677C27.7505 100.091 26.688 100.052 25.6851 99.7529C24.2962 99.3273 23.1103 98.4093 22.3502 97.1712C21.5141 95.6549 21.2535 93.8877 21.6166 92.1946C21.7912 91.1523 22.1728 90.1555 22.7386 89.263C23.3045 88.3704 24.0433 87.6003 24.9114 86.9978C25.7879 86.4136 26.8061 86.0773 27.8581 86.0244C28.9101 85.9716 29.9568 86.2042 30.8874 86.6976Z" fill="#263238"/>
<path d="M30.4739 105.497C30.7736 105.404 31.0621 105.279 31.3343 105.123C31.8746 104.863 32.6683 104.456 33.5753 103.929C36.0195 102.555 38.2825 100.881 40.3118 98.9456C42.347 97.0014 44.0006 94.6936 45.1873 92.1411C45.5388 91.3668 45.8287 90.5661 46.0544 89.7462C46.1551 89.4504 46.22 89.1435 46.2478 88.8323C46.1811 88.8323 45.8876 90.1131 44.9605 92.0344C43.7243 94.5231 42.0681 96.7798 40.065 98.7055C38.0463 100.612 35.8255 102.292 33.442 103.715C32.5282 104.269 31.7812 104.703 31.261 105.003C30.9836 105.142 30.7201 105.308 30.4739 105.497Z" fill="#455A64"/>
<path d="M26.3787 101.954C26.4454 101.954 26.4721 101.08 26.7322 99.6995C27.4251 96.0853 29.219 92.7741 31.8679 90.2199C32.875 89.246 33.5954 88.7456 33.562 88.6923C33.3685 88.7689 33.1867 88.8722 33.0218 88.9991C32.5534 89.3121 32.1077 89.6576 31.6878 90.0332C30.298 91.2784 29.1337 92.7544 28.2463 94.396C27.3543 96.0338 26.7562 97.8153 26.4788 99.6595C26.3911 100.213 26.3443 100.773 26.3387 101.334C26.3207 101.542 26.3342 101.751 26.3787 101.954Z" fill="#455A64"/>
<path d="M31.3677 112.868C31.3677 113.217 31.4709 113.557 31.6644 113.847C31.8579 114.136 32.1329 114.362 32.4546 114.495C32.7764 114.629 33.1304 114.664 33.472 114.596C33.8136 114.528 34.1273 114.36 34.3736 114.114C34.6198 113.867 34.7875 113.553 34.8554 113.212C34.9234 112.87 34.8885 112.516 34.7552 112.194C34.622 111.872 34.3963 111.597 34.1067 111.404C33.8172 111.21 33.4767 111.107 33.1285 111.107C32.6615 111.107 32.2136 111.293 31.8834 111.623C31.5532 111.953 31.3677 112.401 31.3677 112.868Z" fill="#263238"/>
<path d="M47.9352 111.808C47.9352 111.641 46.8147 111.808 45.8743 111.034C44.9338 110.26 44.8405 109.032 44.6871 109.032C44.5337 109.032 44.5203 109.333 44.5937 109.826C44.6968 110.472 45.0253 111.061 45.5208 111.487C45.9964 111.894 46.6102 112.102 47.2349 112.068C47.7018 112.054 47.9552 111.881 47.9352 111.808Z" fill="#263238"/>
<path d="M22.8705 171.64C22.8705 171.64 17.6214 190.153 20.7362 200.206C22.6103 206.21 48.849 239.452 50.0829 240.9C50.9633 241.894 38.8644 273.274 36.6501 279.812L50.5631 286.556C50.5631 286.556 67.971 249.532 69.0382 243.041C70.3721 234.709 50.8232 199.065 51.5369 198.585L58.5801 183.909L52.7841 168.759C52.7841 168.759 28.1595 169.025 23.1372 169.426L22.8705 171.64Z" fill="#263238"/>
<path d="M53.3043 182.554C53.3043 182.554 87.2398 194.602 91.0682 196.637C95.2368 198.858 98.4049 206.644 94.91 213.281C91.4151 219.919 60.8945 238.885 60.8945 238.885L53.3043 227.291L75.3811 209.892L51.4502 204.262L43.6933 195.029L53.3043 182.554Z" fill="#263238"/>
<path d="M69.0648 242.808C69.139 242.024 69.139 241.236 69.0648 240.453C68.749 238.322 68.1734 236.239 67.3507 234.249C66.8638 232.974 66.2836 231.58 65.6766 230.106C65.3632 229.365 65.0697 228.578 64.7629 227.784C64.4561 226.99 64.0959 226.183 63.7491 225.349C62.3018 222.014 60.6543 218.425 58.9202 214.636C56.1189 208.545 53.5378 202.921 51.4568 198.411V198.365V198.318C52.3372 194.662 53.1176 191.647 53.7045 189.599C54.0046 188.565 54.2581 187.764 54.4515 187.224C54.5247 187.019 54.6093 186.819 54.705 186.624C54.785 186.49 54.825 186.43 54.8317 186.437C54.8384 186.444 54.8317 186.51 54.745 186.644C54.6583 186.777 54.6249 186.984 54.5316 187.251C54.3581 187.798 54.138 188.585 53.8646 189.646C53.3243 191.72 52.5907 194.722 51.7369 198.385V198.291C53.8512 202.774 56.4724 208.391 59.267 214.489C61.0012 218.285 62.6019 221.9 64.0692 225.223C64.4227 226.056 64.7762 226.864 65.0764 227.677C65.3765 228.491 65.6633 229.252 65.9701 229.999C66.5704 231.487 67.1373 232.874 67.6042 234.162C68.4123 236.176 68.9592 238.286 69.2316 240.439C69.3137 241.232 69.2573 242.034 69.0648 242.808Z" fill="#455A64"/>
<path opacity="0.3" d="M53.7845 189.526C53.7178 189.772 53.7845 198.445 53.7845 198.445L58.1199 205.83L54.6383 205.009L51.5435 198.565L53.7845 189.526Z" fill="black"/>
<path d="M73.04 188.198C72.0595 187.237 69.1916 184.542 67.1707 182.648C67.0101 182.486 66.8999 182.282 66.8534 182.059C66.807 181.836 66.8263 181.605 66.9089 181.393C66.9916 181.181 67.1341 180.997 67.3191 180.865C67.5042 180.732 67.7237 180.656 67.951 180.646L91.1949 180.173C91.3659 180.167 91.5361 180.199 91.6931 180.267C91.85 180.335 91.9897 180.437 92.102 180.566L96.9576 186.023C97.1057 186.191 97.2031 186.398 97.2382 186.619C97.2733 186.84 97.2448 187.067 97.156 187.273C97.0672 187.478 96.9218 187.654 96.7366 187.78C96.5515 187.907 96.3344 187.977 96.1105 187.985L73.8937 188.572C73.7334 188.571 73.5749 188.538 73.428 188.474C73.2811 188.409 73.149 188.316 73.04 188.198Z" fill="#455A64"/>
<path d="M66.4637 184.009C68.1882 183.272 70.0062 182.779 71.8661 182.541C74.534 182.274 75.9147 183.408 77.362 183.275C78.8093 183.141 82.7644 183.528 82.7644 184.609C82.7644 185.69 77.2686 186.057 77.2686 186.057L82.0908 187.598C82.0908 187.598 87.5866 186.931 87.6867 187.598C87.7867 188.265 82.7644 188.932 80.4501 189.239C78.1357 189.546 64.7229 189.719 62.7953 189.239C60.8678 188.758 47.1682 180.46 47.1682 180.46L53.7312 173.708L66.4637 184.009Z" fill="#FFBF9D"/>
<path d="M32.6816 123.629C30.6958 124.052 28.861 125.003 27.3713 126.383C25.8815 127.763 24.7919 129.519 24.2177 131.467C22.4236 137.178 25.8451 160.653 27.2991 164.896C28.7531 169.139 44.4136 182.774 45.7942 181.614C47.1749 180.453 54.785 173.702 54.785 173.702L42.5461 159.212C42.5461 159.212 43.2131 142.014 42.386 138.765C41.559 135.516 36.1098 123.302 32.6816 123.629Z" fill="#966AF2"/>
<path d="M25.0248 152.261C25.9185 160.42 24.1711 163.922 24.1711 163.922C22.8967 164.964 22.0785 166.462 21.89 168.098C21.8686 168.269 21.8847 168.443 21.9372 168.608C21.9898 168.772 22.0775 168.923 22.1943 169.05C22.3111 169.177 22.4542 169.277 22.6136 169.343C22.773 169.409 22.9449 169.439 23.1173 169.432L52.7641 168.765C52.7641 168.765 56.9127 169.159 56.826 165.223C56.7259 160.833 57.9331 145.403 56.3391 139.332C55.7922 137.238 49.0024 127.031 49.0024 127.031L34.8693 119.026L33.3686 122.882C33.3686 122.882 28.8866 124.516 26.839 127.158C25.4839 128.848 24.5162 130.816 24.0043 132.921C22.7704 137.124 24.5446 147.891 25.0248 152.261Z" fill="#966AF2"/>
<path d="M99.5654 138.645C99.5654 138.645 99.312 138.412 98.4116 138.699C97.5112 138.985 94.9567 140.246 93.7961 140.547C92.6356 140.847 90.1211 141.814 90.1211 141.814C88.9721 141.797 87.8519 142.174 86.9464 142.881C85.1722 144.109 80.1566 147.418 80.1566 147.418L81.8774 152.301C82.6967 152.144 83.5325 152.09 84.3652 152.141C85.5456 152.367 86.7624 152.317 87.9201 151.994C89.2541 151.58 91.1283 150.847 91.1283 150.847C91.1283 150.847 92.9224 150.993 93.396 150.34C93.8695 149.686 93.396 148.512 93.396 148.512C93.396 148.512 95.1568 146.891 94.4031 145.983C93.6494 145.076 92.7023 144.062 92.7023 144.062C92.7023 144.062 97.9314 141.287 98.9185 140.553C99.9056 139.819 100.072 139.246 99.5654 138.645Z" fill="#FFBF9D"/>
<path d="M80.1566 147.438L63.8825 152.915L57.3062 156.237L66.537 161.214L81.8774 152.314L80.1566 147.438Z" fill="#FFBF9D"/>
<path d="M90.0144 143.415C90.317 144.805 90.248 146.25 89.8143 147.604L89.7343 147.865L89.6009 147.645C90.6814 147.838 91.6418 148.025 92.3355 148.185C93.0291 148.345 93.4226 148.625 93.3826 148.659C93.0231 148.557 92.6579 148.477 92.2888 148.418C91.6218 148.325 90.6214 148.172 89.5409 147.985L89.3541 147.951L89.4075 147.765C89.4075 147.685 89.4542 147.598 89.4742 147.511C89.7815 146.166 89.9624 144.794 90.0144 143.415Z" fill="#FF9A6C"/>
<path d="M89.9344 145.73C89.9344 145.697 90.0811 145.73 90.2678 145.837C90.5311 146.018 90.7204 146.288 90.8014 146.597L90.6213 146.47C90.9278 146.419 91.2377 146.39 91.5484 146.384C92.2672 146.311 92.991 146.46 93.6227 146.811C93.6227 146.904 92.6823 146.704 91.5551 146.731C91.235 146.731 90.9348 146.731 90.668 146.784H90.5213V146.651C90.3679 146.03 89.8877 145.783 89.9344 145.73Z" fill="#FF9A6C"/>
<path d="M92.3822 144.476C92.4422 144.563 92.002 144.929 91.6085 145.497C91.215 146.064 91.0015 146.591 90.9082 146.571C90.8148 146.551 90.9082 145.903 91.3217 145.296C91.7352 144.689 92.3422 144.396 92.3822 144.476Z" fill="#FF9A6C"/>
<path d="M48.7156 123.442L50.3497 127.838C52.1238 129.519 56.5525 134.262 57.3929 137.525C58.4934 141.794 63.4556 152.521 63.4556 152.521C63.4556 152.521 74.7008 147.725 75.4611 148.518C76.2215 149.312 80.1766 158.525 78.8827 160.486C77.5887 162.448 66.1235 167.504 61.4547 166.357C56.7859 165.21 52.4039 158.492 52.4039 158.492L48.7156 123.442Z" fill="#966AF2"/>
<path d="M56.119 137.571C56.2668 137.895 56.3895 138.229 56.4858 138.572C56.6239 138.967 56.7353 139.37 56.8193 139.779C56.9596 140.313 57.071 140.855 57.1528 141.4C57.3865 142.823 57.5158 144.262 57.5396 145.703C57.5396 147.331 57.5396 149.112 57.3929 150.98C57.1394 154.716 56.8726 158.085 56.906 160.526C56.906 161.14 56.906 161.694 56.906 162.174C56.906 162.655 56.946 163.082 56.9727 163.422C57.0208 163.773 57.0364 164.128 57.0194 164.482C56.931 164.139 56.8707 163.789 56.8393 163.435C56.7926 163.095 56.7392 162.675 56.7126 162.188C56.6859 161.701 56.6259 161.147 56.6259 160.533C56.5325 158.072 56.7593 154.683 57.0127 150.96C57.1328 149.099 57.1995 147.324 57.1861 145.71C57.1755 144.282 57.073 142.856 56.8793 141.441C56.5458 139.026 56.0189 137.591 56.119 137.571Z" fill="#263238"/>
<path d="M63.2822 158.879C63.0821 156.707 63.1134 154.52 63.3756 152.354C63.5353 153.434 63.5778 154.528 63.5023 155.617C63.5498 156.709 63.476 157.803 63.2822 158.879Z" fill="#263238"/>
<path d="M42.306 136.804C42.3214 136.935 42.3214 137.067 42.306 137.198C42.306 137.498 42.306 137.865 42.306 138.325C42.306 139.352 42.3394 140.76 42.3594 142.474C42.3994 145.977 42.5861 150.82 42.4394 156.17C42.3499 157.445 42.5791 158.722 43.1064 159.886C43.7358 160.906 44.4738 161.854 45.3074 162.715L49.4493 167.331L52.1171 170.493L52.8441 171.36C52.9314 171.457 53.0095 171.562 53.0776 171.674C52.9739 171.594 52.8779 171.505 52.7908 171.407L52.0171 170.58L49.2225 167.511L45.1139 162.928C44.2568 162.053 43.4985 161.087 42.8529 160.046C42.2873 158.836 42.035 157.503 42.1192 156.17C42.266 150.833 42.1192 145.983 42.1192 142.481C42.1192 140.727 42.1192 139.306 42.1726 138.325C42.1726 137.838 42.2126 137.458 42.226 137.198C42.2366 137.064 42.2635 136.932 42.306 136.804Z" fill="#263238"/>
<path d="M32.108 123.629C32.108 123.669 31.441 123.862 30.3205 124.469C28.747 125.336 27.3813 126.536 26.3187 127.985C25.581 128.974 25.0027 130.072 24.6046 131.24C24.3776 131.89 24.2123 132.561 24.111 133.242C24.0176 133.942 23.9576 134.676 23.9109 135.43C23.8143 137 23.8143 138.576 23.9109 140.146C24.0176 141.774 24.2444 143.482 24.4178 145.196C24.7847 148.665 25.1315 151.967 25.4516 154.976C25.632 157.638 26.0246 160.282 26.6255 162.881C27.0722 164.621 27.8538 166.257 28.9265 167.698C29.227 168.085 29.5523 168.453 29.9003 168.799C30.0269 168.912 30.1471 169.032 30.2605 169.159C30.2605 169.159 30.2205 169.159 30.1471 169.092C30.0737 169.025 29.9737 168.959 29.8536 168.845C29.4807 168.523 29.137 168.168 28.8265 167.785C27.6908 166.357 26.862 164.711 26.3921 162.948C25.748 160.342 25.3263 157.687 25.1315 155.009C24.8047 152.001 24.4645 148.699 24.071 145.236C23.8976 143.502 23.6775 141.814 23.5708 140.166C23.4705 138.582 23.4705 136.994 23.5708 135.41C23.6241 134.649 23.6842 133.915 23.7909 133.195C23.901 132.502 24.0751 131.821 24.3111 131.16C25.3503 128.222 27.4709 125.791 30.2405 124.362C30.6696 124.137 31.1156 123.945 31.5744 123.789C31.7486 123.724 31.9268 123.67 32.108 123.629Z" fill="#263238"/>
<path d="M48.929 127.972C48.6912 127.86 48.4673 127.722 48.262 127.558L46.4545 126.33L46.6413 126.237C46.6413 127.158 46.6413 128.238 46.6413 129.433V129.679L46.4078 129.566L42.6661 127.685C40.1116 126.391 37.8106 125.196 36.1498 124.349L34.1489 123.302C33.9146 123.179 33.6915 123.036 33.4819 122.875C33.7475 122.944 34.003 123.047 34.2423 123.182L36.2432 124.136C37.9306 124.956 40.245 126.137 42.7995 127.411L46.5346 129.319L46.3011 129.459C46.3411 128.265 46.3812 127.184 46.4078 126.264V126.03L46.5946 126.164L48.3354 127.498C48.5498 127.634 48.7489 127.793 48.929 127.972Z" fill="#263238"/>
<path d="M54.1781 276.283L48.6956 287.764C48.6956 287.764 59.2204 297.41 58.4267 299.638L34.4557 289.412L42.2193 271.133L54.1781 276.283Z" fill="#263238"/>
<path d="M41.7057 283.615C41.4566 283.576 41.2021 283.633 40.9931 283.774C40.7841 283.915 40.6361 284.13 40.5785 284.375C40.5488 284.63 40.617 284.887 40.7692 285.094C40.9215 285.301 41.1465 285.442 41.3989 285.489C41.6639 285.529 41.9344 285.468 42.1559 285.317C42.3774 285.166 42.5335 284.937 42.5928 284.675C42.5937 284.405 42.4925 284.144 42.3095 283.945C42.1265 283.746 41.8752 283.623 41.6057 283.601" fill="#E0E0E0"/>
<path d="M34.4557 289.412L35.3161 287.604L57.9932 298.111C57.9932 298.111 58.8669 299.005 58.44 299.665L34.4557 289.412Z" fill="#455A64"/>
<path d="M49.1358 287.811C49.0824 287.924 48.4688 287.724 47.7485 287.811C47.0281 287.897 46.5079 288.258 46.4145 288.164C46.3211 288.071 46.7747 287.497 47.6618 287.397C48.5488 287.297 49.2025 287.724 49.1358 287.811Z" fill="white"/>
<path d="M51.2234 289.872C51.2234 289.992 50.6164 289.965 50.0162 290.259C49.4159 290.552 49.0891 291.006 48.9757 290.926C48.8623 290.846 49.0557 290.219 49.8094 289.859C50.5631 289.498 51.2701 289.765 51.2234 289.872Z" fill="white"/>
<path d="M51.4502 293.328C51.3368 293.328 51.4101 292.66 51.9704 292.207C52.5306 291.753 53.1843 291.72 53.1976 291.833C53.211 291.947 52.7307 292.127 52.2705 292.5C51.8103 292.874 51.5435 293.368 51.4502 293.328Z" fill="white"/>
</g>
<defs>
<clipPath id="clip0_20_965">
<rect width="307" height="300.305" fill="white" transform="translate(0 0.847412)"/>
</clipPath>
</defs>
</svg>
